<?xml version="1.0" encoding="utf-8"?>
<!-- Generator: Adobe Illustrator 16.0.0, SVG Export Plug-In . SVG Version: 6.00 Build 0)  -->
<!DOCTYPE svg PUBLIC "-//W3C//DTD SVG 1.1//EN" "http://www.w3.org/Graphics/SVG/1.1/DTD/svg11.dtd">
<svg version="1.1" id="Layer_1" xmlns="http://www.w3.org/2000/svg" xmlns:xlink="http://www.w3.org/1999/xlink" x="0px" y="0px"
	 width="1400px" height="980px" viewBox="0 0 1400 980" enable-background="new 0 0 1400 980" xml:space="preserve">
<g>
	<g>
		<g>
			<rect fill="#FFFFFF" width="1400" height="980"/>
		</g>
	</g>
	<g>
		<path fill="#E6E7E8" d="M950.2,644.7l54-31.1c-8.7-14-20.8-25.7-35.2-33.8V342.1c0-26.2-21.2-47.4-47.4-47.4
			c-26.2,0-47.4,21.2-47.4,47.4v237.8c-5.8,3.3-11.2,7.1-16.2,11.4c-20.5,17.8-33.4,43.9-33.4,73.2c0,53.6,43.4,97,97,97
			c10.1,0,19.9-1.6,29.1-4.5l-47.6-85.2L950.2,644.7z M926.7,320.9c8.8,0,15.9,7.1,15.9,15.9c0,8.8-7.1,15.9-15.9,15.9
			s-15.9-7.1-15.9-15.9C910.8,328,917.9,320.9,926.7,320.9z"/>
		<path d="M921.7,763.8c-54.8,0-99.4-44.6-99.4-99.4c0-28.7,12.5-56,34.2-74.9c4.8-4.2,10-7.9,15.4-11V342.1
			c0-27.4,22.3-49.8,49.8-49.8c27.4,0,49.8,22.3,49.8,49.8v236.4c14.2,8.2,26.2,19.9,34.8,33.9c0.3,0.5,0.4,1.2,0.3,1.8
			c-0.2,0.6-0.6,1.2-1.1,1.5l-99.1,57l46.5,83.1c0.3,0.6,0.4,1.4,0.1,2c-0.3,0.7-0.8,1.2-1.5,1.4
			C941.9,762.3,931.8,763.8,921.7,763.8z M921.7,297.1c-24.8,0-45,20.2-45,45v237.8c0,0.9-0.5,1.7-1.2,2.1
			c-5.6,3.1-10.9,6.9-15.8,11.2c-20.7,18-32.6,44-32.6,71.4c0,52.2,42.4,94.6,94.6,94.6c8.7,0,17.3-1.2,25.6-3.5L901.1,673
			c-0.6-1.1-0.2-2.6,0.9-3.2l98.9-57c-8.4-12.8-19.7-23.4-33-30.9c-0.7-0.4-1.2-1.2-1.2-2.1V342.1
			C966.7,317.3,946.5,297.1,921.7,297.1z M926.7,355.1c-10.1,0-18.3-8.2-18.3-18.3c0-10.1,8.2-18.3,18.3-18.3
			c10.1,0,18.3,8.2,18.3,18.3C944.9,346.9,936.7,355.1,926.7,355.1z M926.7,323.3c-7.5,0-13.5,6.1-13.5,13.5
			c0,7.5,6.1,13.5,13.5,13.5c7.5,0,13.5-6.1,13.5-13.5C940.2,329.4,934.1,323.3,926.7,323.3z"/>
	</g>
	<g>
		<polygon fill="#E6E7E8" points="722.7,317.4 722.7,352.6 674.4,352.6 674.4,317.4 572.4,317.4 572.4,358.3 635.5,400.9 
			638.4,436.9 761.6,400.9 824.7,358.3 824.7,317.4 		"/>
		<path d="M638.4,439.3c-0.5,0-0.9-0.1-1.3-0.4c-0.6-0.4-1-1.1-1-1.8l-2.8-34.9l-62.1-41.9c-0.7-0.4-1-1.2-1-2v-41
			c0-1.3,1.1-2.4,2.4-2.4h102c1.3,0,2.4,1.1,2.4,2.4v32.8h43.5v-32.8c0-1.3,1.1-2.4,2.4-2.4h102c1.3,0,2.4,1.1,2.4,2.4v41
			c0,0.8-0.4,1.5-1,2L763,402.9c-0.2,0.1-0.4,0.2-0.7,0.3l-123.3,36C638.8,439.3,638.6,439.3,638.4,439.3z M574.8,357l62,41.9
			c0.6,0.4,1,1.1,1,1.8l2.6,33.1l120.1-35.1l61.7-41.7v-37.3H725v32.8c0,1.3-1.1,2.4-2.4,2.4h-48.2c-1.3,0-2.4-1.1-2.4-2.4v-32.8
			h-97.3V357z"/>
	</g>
	<g>
		<path d="M689.7,403.3h-54.2c-1.3,0-2.4-1.1-2.4-2.4c0-1.3,1.1-2.4,2.4-2.4h54.2c1.3,0,2.4,1.1,2.4,2.4
			C692,402.2,691,403.3,689.7,403.3z"/>
	</g>
	<g>
		<polygon fill="#D1D3D4" points="654.5,639.2 744.7,612.8 748.1,570.5 651.3,598.8 		"/>
		<path d="M654.5,641.6c-0.5,0-0.9-0.1-1.3-0.4c-0.6-0.4-1-1.1-1-1.8l-3.2-40.5c-0.1-1.1,0.6-2.2,1.7-2.5l96.8-28.3
			c0.8-0.2,1.6-0.1,2.2,0.4c0.6,0.5,0.9,1.3,0.9,2l-3.4,42.4c-0.1,1-0.8,1.8-1.7,2.1l-90.2,26.4
			C654.9,641.6,654.7,641.6,654.5,641.6z M653.8,600.5l2.8,35.6l85.9-25.1l3-37.3L653.8,600.5z"/>
	</g>
	<g>
		<polygon fill="#E6E7E8" points="698.5,735.1 739.4,679.4 741.3,655.2 657.9,679.6 		"/>
		<path d="M698.5,737.4L698.5,737.4c-0.8,0-1.5-0.4-1.9-1L656,681c-0.5-0.6-0.6-1.4-0.3-2.2c0.3-0.7,0.8-1.3,1.6-1.5l83.5-24.4
			c0.8-0.2,1.6-0.1,2.2,0.4c0.6,0.5,0.9,1.3,0.9,2l-1.9,24.1c0,0.4-0.2,0.9-0.4,1.2l-40.9,55.7C700,737.1,699.3,737.4,698.5,737.4z
			 M661.8,681l36.7,50.1l38.6-52.5l1.6-20L661.8,681z"/>
	</g>
	<g>
		<polygon fill="#BCBEC0" points="651.3,598.8 748.1,570.5 751.5,528.1 648,558.3 		"/>
		<path d="M651.3,601.1c-0.5,0-0.9-0.1-1.3-0.4c-0.6-0.4-1-1.1-1-1.8l-3.2-40.5c-0.1-1.1,0.6-2.2,1.7-2.5l103.4-30.3
			c0.8-0.2,1.6-0.1,2.2,0.4c0.6,0.5,0.9,1.3,0.9,2l-3.4,42.4c-0.1,1-0.8,1.8-1.7,2.1l-96.8,28.3
			C651.7,601.1,651.5,601.1,651.3,601.1z M650.6,560l2.8,35.6l92.5-27l3-37.3L650.6,560z"/>
	</g>
	<g>
		<polygon fill="#BCBEC0" points="657.7,679.4 657.9,679.6 741.3,655.2 744.7,612.8 654.5,639.2 		"/>
		<path d="M657.9,682c-0.7,0-1.4-0.3-1.9-0.9l-0.2-0.3c-0.3-0.4-0.4-0.8-0.5-1.2l-3.2-40.1c-0.1-1.1,0.6-2.2,1.7-2.5l90.2-26.4
			c0.8-0.2,1.6,0,2.2,0.4c0.6,0.5,0.9,1.3,0.9,2l-3.4,42.4c-0.1,1-0.8,1.8-1.7,2.1l-83.5,24.4C658.3,682,658.1,682,657.9,682z
			 M657,641l2.8,35.6l79.3-23.2l3-37.3L657,641z"/>
	</g>
	<g>
		<polygon fill="#D1D3D4" points="641.6,477.4 758.2,443.3 761.6,400.9 638.4,436.9 		"/>
		<path d="M641.6,479.8c-0.5,0-0.9-0.1-1.4-0.4c-0.6-0.4-1-1.1-1-1.8l-3.2-40.5c-0.1-1.1,0.6-2.2,1.7-2.5l123.3-36
			c0.8-0.2,1.6-0.1,2.2,0.4c0.6,0.5,0.9,1.3,0.9,2l-3.4,42.4c-0.1,1-0.8,1.8-1.7,2.1l-116.7,34.1C642,479.7,641.8,479.8,641.6,479.8
			z M640.9,438.7l2.8,35.6L756,441.5l3-37.3L640.9,438.7z"/>
	</g>
	<g>
		<polygon fill="#D1D3D4" points="648,558.3 751.5,528.1 754.9,485.7 644.8,517.9 		"/>
		<path d="M648,560.7c-0.5,0-0.9-0.1-1.4-0.4c-0.6-0.4-1-1.1-1-1.8l-3.2-40.5c-0.1-1.1,0.6-2.2,1.7-2.5l110.1-32.2
			c0.8-0.2,1.6-0.1,2.2,0.4c0.6,0.5,0.9,1.3,0.9,2l-3.4,42.4c-0.1,1-0.8,1.8-1.7,2.1l-103.5,30.3C648.5,560.7,648.3,560.7,648,560.7
			z M647.3,519.6l2.8,35.6l99.1-29l3-37.3L647.3,519.6z"/>
	</g>
	<g>
		<polygon fill="#BCBEC0" points="644.8,517.9 754.9,485.7 758.2,443.3 641.6,477.4 		"/>
		<path d="M644.8,520.2c-0.5,0-0.9-0.1-1.4-0.4c-0.6-0.4-1-1.1-1-1.8l-3.2-40.5c-0.1-1.1,0.6-2.2,1.7-2.5L757.6,441
			c0.8-0.2,1.6-0.1,2.2,0.4c0.6,0.5,0.9,1.3,0.9,2l-3.4,42.4c-0.1,1-0.8,1.8-1.7,2.1l-110.1,32.2C645.3,520.2,645,520.2,644.8,520.2
			z M644.1,479.1l2.8,35.6l105.7-30.9l3-37.3L644.1,479.1z"/>
	</g>
	<g>
		<path d="M969.2,715.5c-0.1,0-0.1,0-0.2,0c-0.8-0.1-1.5-0.5-1.9-1.2l-33.5-59.9c-0.6-1.1-0.2-2.6,0.9-3.2l39.5-22.7
			c1.1-0.6,2.5-0.3,3.2,0.8c7.1,11.5,10.9,24.8,10.9,38.4c0,17.1-6.1,33.8-17.1,47C970.6,715.2,969.9,715.5,969.2,715.5z M939,654.1
			l30.6,54.7c8.9-11.8,13.8-26.3,13.8-41.2c0-11.9-3.1-23.6-9-33.9L939,654.1z"/>
	</g>
	<g>
		<path fill="#FFFFFF" d="M942.7,622.1c6.2-3.5,8.3-11.4,4.7-17.6l0,0c-3.5-6.2-11.4-8.3-17.6-4.7l-38.6,22.2
			c-6.2,3.6-8.3,11.4-4.7,17.6l0,0c3.5,6.2,11.4,8.3,17.6,4.7L942.7,622.1z"/>
		<path d="M897.6,648.5L897.6,648.5c-5.4,0-10.5-2.9-13.2-7.6c-4.2-7.3-1.7-16.6,5.6-20.8l38.6-22.3c2.3-1.3,4.9-2,7.6-2
			c5.4,0,10.5,2.9,13.2,7.6c2,3.5,2.6,7.6,1.5,11.6c-1.1,3.9-3.6,7.2-7.1,9.2l-38.6,22.3C902.9,647.8,900.3,648.5,897.6,648.5z
			 M936.2,600.5c-1.8,0-3.6,0.5-5.2,1.4l-38.6,22.2c-5,2.9-6.7,9.3-3.9,14.3c2.8,4.8,9.5,6.6,14.3,3.8l38.6-22.3
			c2.4-1.4,4.2-3.6,4.9-6.4c0.7-2.7,0.4-5.5-1-8C943.5,602.5,940,600.5,936.2,600.5z"/>
	</g>
	<g>
		<path fill="#D1D3D4" d="M944.1,402.9c0-9.6-7.8-17.4-17.4-17.4l0,0c-9.6,0-17.4,7.8-17.4,17.4v136c0,9.6,7.8,17.4,17.4,17.4l0,0
			c9.6,0,17.4-7.8,17.4-17.4V402.9z"/>
		<path d="M926.7,558.7c-10.9,0-19.8-8.9-19.8-19.8v-136c0-10.9,8.9-19.8,19.8-19.8c10.9,0,19.8,8.9,19.8,19.8v136
			C946.4,549.8,937.6,558.7,926.7,558.7z M926.7,387.9c-8.3,0-15,6.7-15,15v136c0,8.3,6.7,15,15,15c8.3,0,15-6.7,15-15v-136
			C941.7,394.7,935,387.9,926.7,387.9z"/>
	</g>
	<g>
		<path fill="#E6E7E8" d="M512.7,561.7l0-228.9c0-21-17-38.1-38.1-38.1c-21,0-38.1,17-38.1,38.1l0,228.9
			c-37,15.4-60.9,51.2-60.9,91.3c0,37.1,20.5,70.8,53.5,87.9l2.2,1.2V643h86.5v99.1l2.2-1.2c33-17.1,53.5-50.8,53.5-87.9
			C573.7,612.9,549.8,577.1,512.7,561.7z M458.8,336.8c0-8.8,7.1-15.9,15.9-15.9c8.8,0,15.9,7.1,15.9,15.9c0,8.8-7.1,15.9-15.9,15.9
			C465.9,352.7,458.8,345.6,458.8,336.8z"/>
		<path d="M517.9,744.4c-0.4,0-0.9-0.1-1.2-0.3c-0.7-0.4-1.1-1.2-1.1-2v-96.7h-81.7v96.7c0,0.8-0.4,1.6-1.1,2
			c-0.7,0.4-1.6,0.5-2.3,0.1l-2.2-1.2c-33.8-17.5-54.8-52-54.8-90c0-40.5,23.9-76.8,60.9-92.9l0-227.3c0-22.3,18.1-40.4,40.4-40.4
			s40.4,18.1,40.4,40.4l0,227.3c37.1,16.1,60.9,52.4,60.9,92.9c0,38-21,72.5-54.8,90l-2.2,1.2C518.7,744.3,518.3,744.4,517.9,744.4z
			 M431.4,640.6h86.5c1.3,0,2.4,1.1,2.4,2.4v95.1c31.5-16.9,51-49.4,51-85.1c0-39.1-23.3-74.1-59.5-89.2c-0.9-0.4-1.5-1.2-1.5-2.2
			l0-228.9c0-19.7-16-35.7-35.7-35.7c-19.7,0-35.7,16-35.7,35.7l0,228.9c0,1-0.6,1.8-1.5,2.2c-36.1,15.1-59.5,50-59.5,89.2
			c0,35.7,19.5,68.2,51,85.1V643C429,641.7,430.1,640.6,431.4,640.6z M474.7,355.1c-10.1,0-18.3-8.2-18.3-18.3
			c0-10.1,8.2-18.3,18.3-18.3c10.1,0,18.3,8.2,18.3,18.3C492.9,346.9,484.7,355.1,474.7,355.1z M474.7,323.3
			c-7.5,0-13.5,6.1-13.5,13.5c0,7.5,6.1,13.5,13.5,13.5s13.5-6.1,13.5-13.5C488.2,329.4,482.1,323.3,474.7,323.3z"/>
	</g>
	<g>
		<rect x="460.2" y="372" fill="#D1D3D4" width="31.8" height="186.3"/>
	</g>
	<g>
		<path d="M492,560.7h-25.9c-1.3,0-2.4-1.1-2.4-2.4c0-1.3,1.1-2.4,2.4-2.4h23.5V381.5c0-1.3,1.1-2.4,2.4-2.4c1.3,0,2.4,1.1,2.4,2.4
			v176.8C494.3,559.6,493.3,560.7,492,560.7z"/>
	</g>
	<g>
		<path d="M517.9,645.4c-1.3,0-2.4-1.1-2.4-2.4v-19.5h-48c-1.3,0-2.4-1.1-2.4-2.4c0-1.3,1.1-2.4,2.4-2.4h50.3c1.3,0,2.4,1.1,2.4,2.4
			V643C520.3,644.3,519.2,645.4,517.9,645.4z"/>
	</g>
	<g>
		<path d="M968.7,222.1H430.1c-1.3,0-2.4-1.1-2.4-2.4v-15.1c-26.6-1.2-47.9-23.3-47.9-50.2c0-26.9,21.3-49,47.9-50.2V89.1
			c0-1.3,1.1-2.4,2.4-2.4h538.6c1.3,0,2.4,1.1,2.4,2.4v15.1c26.6,1.2,47.9,23.3,47.9,50.2c0,26.9-21.3,49-47.9,50.2v15.1
			C971.1,221.1,970,222.1,968.7,222.1z M432.5,217.4h533.9v-15c0-1.3,1.1-2.4,2.4-2.4c25.1,0,45.5-20.4,45.5-45.5
			c0-25.1-20.4-45.5-45.5-45.5c-1.3,0-2.4-1.1-2.4-2.4v-15H432.5v15c0,1.3-1.1,2.4-2.4,2.4c-25.1,0-45.5,20.4-45.5,45.5
			c0,25.1,20.4,45.5,45.5,45.5c1.3,0,2.4,1.1,2.4,2.4V217.4z"/>
	</g>
	<g>
		<path d="M406.7,180.2c-0.6,0-1.2-0.2-1.7-0.7c-0.9-0.9-0.9-2.4,0-3.4l46.7-46.7c0.9-0.9,2.4-0.9,3.4,0c0.9,0.9,0.9,2.4,0,3.4
			l-46.7,46.7C407.9,180,407.3,180.2,406.7,180.2z"/>
	</g>
	<g>
		<path d="M1004.2,156.8h-71.1c-1.3,0-2.4-1.1-2.4-2.4s1.1-2.4,2.4-2.4h71.1c1.3,0,2.4,1.1,2.4,2.4S1005.6,156.8,1004.2,156.8z"/>
	</g>
	<g>
		<g>
			<path fill="#E6E7E8" d="M968.7,182.6c15.5,0,28.1-12.6,28.1-28.1h-56.3C940.6,170,953.2,182.6,968.7,182.6z"/>
			<path d="M968.7,185c-16.8,0-30.5-13.7-30.5-30.5c0-1.3,1.1-2.4,2.4-2.4h56.3c1.3,0,2.4,1.1,2.4,2.4
				C999.2,171.3,985.5,185,968.7,185z M943.1,156.8c1.2,13.1,12.2,23.4,25.6,23.4s24.4-10.3,25.6-23.4H943.1z"/>
		</g>
		<g>
			<path fill="#FFFFFF" d="M968.7,126.3c-15.5,0-28.1,12.6-28.1,28.1h56.3C996.8,138.9,984.2,126.3,968.7,126.3z"/>
			<path d="M996.8,156.8h-56.3c-1.3,0-2.4-1.1-2.4-2.4c0-16.8,13.7-30.5,30.5-30.5c16.8,0,30.5,13.7,30.5,30.5
				C999.2,155.8,998.1,156.8,996.8,156.8z M943.1,152.1h51.3c-1.2-13.1-12.2-23.4-25.6-23.4S944.3,139,943.1,152.1z"/>
		</g>
		<g>
			<path fill="#FFFFFF" d="M430.1,126.3c-15.5,0-28.1,12.6-28.1,28.1c0,7.8,3.2,14.8,8.2,19.9l39.8-39.8
				C444.9,129.5,437.8,126.3,430.1,126.3z"/>
			<path d="M410.2,176.7c-0.6,0-1.2-0.2-1.7-0.7c-5.8-5.8-8.9-13.4-8.9-21.6c0-16.8,13.7-30.5,30.5-30.5c8.1,0,15.8,3.2,21.6,8.9
				c0.4,0.4,0.7,1,0.7,1.7s-0.3,1.2-0.7,1.7L411.9,176C411.4,176.5,410.8,176.7,410.2,176.7z M430.1,128.7
				c-14.2,0-25.8,11.6-25.8,25.8c0,6.1,2.1,11.8,5.9,16.5l36.3-36.3C441.9,130.8,436.2,128.7,430.1,128.7z"/>
		</g>
		<g>
			<path fill="#E6E7E8" d="M450,134.6l-39.8,39.8c5.1,5.1,12.1,8.2,19.9,8.2c15.5,0,28.1-12.6,28.1-28.1
				C458.2,146.7,455.1,139.7,450,134.6z"/>
			<path d="M430.1,185c-8.2,0-15.8-3.2-21.6-8.9c-0.9-0.9-0.9-2.4,0-3.4l39.8-39.8c0.4-0.4,1-0.7,1.7-0.7l0,0c0.6,0,1.2,0.3,1.7,0.7
				c5.8,5.8,8.9,13.4,8.9,21.6C460.6,171.3,446.9,185,430.1,185z M413.6,174.3c4.6,3.8,10.4,5.9,16.5,5.9
				c14.2,0,25.8-11.6,25.8-25.7c0-6.1-2.1-11.8-5.9-16.5L413.6,174.3z"/>
		</g>
	</g>
	<g>
		<path fill="#FFFFFF" d="M509.8,832.1c-3-15.2-17.8-25.1-33.1-22.1c-7.6,1.5-13.9,6-17.9,11.9l46.7,31.3
			C509.6,847.2,511.4,839.7,509.8,832.1z"/>
		<path d="M505.6,855.6c-0.5,0-0.9-0.1-1.3-0.4l-46.7-31.3c-0.5-0.3-0.9-0.9-1-1.5c-0.1-0.6,0-1.3,0.4-1.8
			c4.5-6.8,11.4-11.4,19.4-13c2-0.4,4-0.6,6-0.6c14.5,0,27.1,10.3,29.9,24.6c1.6,8,0,16.1-4.6,22.9c-0.4,0.5-0.9,0.9-1.5,1
			C505.9,855.5,505.8,855.6,505.6,855.6z M462.3,821.3l42.6,28.5c2.9-5.3,3.8-11.3,2.6-17.3c-2.4-12-13-20.8-25.2-20.8
			c-1.7,0-3.4,0.2-5,0.5C471.3,813.4,466.1,816.6,462.3,821.3z"/>
	</g>
	<g>
		<path fill="#E6E7E8" d="M505.6,853.2l-46.7-31.3c-4,6-5.7,13.5-4.2,21.1c3,15.2,17.8,25.1,33.1,22.1
			C495.3,863.6,501.6,859.2,505.6,853.2z"/>
		<path d="M482.2,868C482.2,868,482.2,868,482.2,868c-14.5,0-27.1-10.3-29.9-24.6c-1.6-8,0-16.1,4.6-22.9c0.4-0.5,0.9-0.9,1.5-1
			c0.6-0.1,1.3,0,1.8,0.4l46.7,31.3c0.5,0.3,0.9,0.9,1,1.5c0.1,0.6,0,1.3-0.4,1.8c-4.5,6.8-11.4,11.4-19.4,13
			C486.2,867.8,484.2,868,482.2,868z M459.6,825.2c-2.9,5.3-3.8,11.3-2.6,17.3c2.4,12,13,20.8,25.2,20.8l0,0c1.7,0,3.4-0.2,5-0.5
			c6-1.2,11.2-4.4,15-9L459.6,825.2z"/>
	</g>
	<g>
		<path fill="#FFFFFF" d="M609.2,816.1c-11.8,10.1-13.2,27.8-3.2,39.7c5,5.9,12,9.2,19.2,9.8l4.5-56.1
			C622.5,808.9,615.1,811.1,609.2,816.1z"/>
		<path d="M625.2,867.9c-0.1,0-0.1,0-0.2,0c-8.1-0.7-15.5-4.4-20.8-10.6c-10.9-12.8-9.4-32.1,3.4-43c6.1-5.2,14.2-7.8,22.2-7.2
			c1.3,0.1,2.3,1.2,2.2,2.6l-4.5,56.1c0,0.6-0.3,1.2-0.8,1.6C626.3,867.7,625.7,867.9,625.2,867.9z M627.1,811.8
			c-6,0.1-11.8,2.2-16.4,6.1c-10.8,9.2-12.1,25.5-2.9,36.3c3.9,4.6,9.3,7.7,15.2,8.7L627.1,811.8z"/>
	</g>
	<g>
		<path fill="#E6E7E8" d="M629.7,809.5l-4.5,56.1c7.2,0.6,14.6-1.6,20.5-6.6c11.8-10.1,13.2-27.8,3.2-39.7
			C643.8,813.4,636.8,810.1,629.7,809.5z"/>
		<path d="M627.4,868L627.4,868c-0.8,0-1.6,0-2.4-0.1c-1.3-0.1-2.3-1.2-2.2-2.6l4.5-56.1c0-0.6,0.3-1.2,0.8-1.6
			c0.5-0.4,1.1-0.6,1.7-0.6c8.1,0.7,15.5,4.4,20.8,10.6c10.9,12.8,9.4,32.1-3.4,43C641.7,865.4,634.7,868,627.4,868z M631.8,812.2
			l-4.1,51.1c6-0.1,11.8-2.3,16.4-6.1c10.8-9.2,12.1-25.5,2.9-36.3C643.1,816.2,637.8,813.2,631.8,812.2z"/>
	</g>
	<g>
		<path fill="#FFFFFF" d="M799.9,844.1c3.6-15.1-5.6-30.3-20.7-33.9c-7.5-1.8-15.1-0.4-21.3,3.3l29.3,48
			C793.4,857.8,798.1,851.7,799.9,844.1z"/>
		<path d="M787.2,863.9c-0.8,0-1.6-0.4-2-1.1l-29.3-48c-0.3-0.5-0.4-1.2-0.3-1.8c0.1-0.6,0.5-1.1,1.1-1.5c6.9-4.2,15.2-5.5,23.1-3.6
			c16.3,4,26.4,20.5,22.5,36.8c-1.9,7.9-6.8,14.6-13.7,18.9C788.1,863.8,787.7,863.9,787.2,863.9z M761.2,814.4l26.7,43.8
			c4.8-3.6,8.2-8.7,9.6-14.6c3.3-13.8-5.2-27.7-19-31.1C772.8,811.1,766.6,811.8,761.2,814.4z"/>
	</g>
	<g>
		<path fill="#E6E7E8" d="M787.2,861.5l-29.3-48c-6.1,3.8-10.9,9.9-12.7,17.4c-3.6,15.1,5.6,30.3,20.7,33.9
			C773.5,866.7,781.1,865.3,787.2,861.5z"/>
		<path d="M772.6,868L772.6,868c-2.4,0-4.8-0.3-7.2-0.9c-7.9-1.9-14.6-6.8-18.9-13.8c-4.2-7-5.5-15.1-3.6-23.1
			c1.9-7.9,6.8-14.6,13.7-18.9c0.5-0.3,1.2-0.4,1.8-0.3c0.6,0.1,1.1,0.5,1.5,1.1l29.3,48c0.7,1.1,0.3,2.6-0.8,3.3
			C783.7,866.5,778.2,868,772.6,868z M757.2,816.9c-4.8,3.6-8.2,8.7-9.6,14.6c-1.6,6.7-0.5,13.6,3.1,19.5c3.6,5.9,9.2,10,15.9,11.6
			c2,0.5,4,0.7,6.1,0.7l0,0c3.9,0,7.8-0.9,11.3-2.6L757.2,816.9z"/>
	</g>
	<g>
		<path fill="#E6E7E8" d="M890.6,830.2c-4,15,4.8,30.4,19.8,34.5c7.5,2,15.1,0.8,21.3-2.8l-28.1-48.8
			C897.5,816.7,892.6,822.7,890.6,830.2z"/>
		<path d="M917.7,868L917.7,868c-2.7,0-5.3-0.4-7.9-1.1c-7.9-2.1-14.4-7.2-18.5-14.2c-4.1-7.1-5.1-15.3-3-23.1
			c2.1-7.9,7.2-14.4,14.2-18.5c0.6-0.3,1.2-0.4,1.8-0.2c0.6,0.2,1.1,0.6,1.4,1.1l28.1,48.8c0.3,0.5,0.4,1.2,0.2,1.8
			c-0.2,0.6-0.6,1.1-1.1,1.4C928.3,866.6,923.1,868,917.7,868z M902.9,816.5c-4.9,3.5-8.4,8.5-10,14.3c-1.8,6.6-0.9,13.6,2.5,19.5
			c3.4,6,9,10.2,15.6,12c5.8,1.6,12,1,17.4-1.5L902.9,816.5z"/>
	</g>
	<g>
		<path fill="#FFFFFF" d="M903.7,813.2l28.1,48.8c6.2-3.6,11.1-9.6,13.1-17.1c4-15-4.8-30.4-19.8-34.5
			C917.5,808.4,909.9,809.6,903.7,813.2z"/>
		<path d="M931.8,864.3c-0.8,0-1.6-0.4-2.1-1.2l-28.1-48.8c-0.7-1.1-0.3-2.6,0.9-3.2c7-4,15.4-5.1,23.2-3
			c16.2,4.4,25.9,21.2,21.5,37.4c-2.1,7.9-7.2,14.4-14.2,18.5C932.6,864.2,932.2,864.3,931.8,864.3z M907,814.1l25.6,44.4
			c4.9-3.5,8.4-8.5,10-14.3c3.7-13.7-4.4-27.9-18.2-31.6C918.6,811.1,912.4,811.6,907,814.1z"/>
	</g>
	<g>
		<g>
			<polygon points="545.7,122.6 568.2,122.6 568.2,191.9 574,191.9 574,122.6 596.6,122.6 596.6,117.1 545.7,117.1 			"/>
		</g>
		<g>
			<path d="M633.8,115.5c-11,0-19.6,4-25.4,11.8c-5.2,7-7.8,16.1-7.8,27.3c0,11.3,2.6,20.5,7.8,27.3c5.8,7.7,14.3,11.6,25.4,11.6
				c11.1,0,19.7-3.9,25.5-11.6c5.2-6.8,7.8-16,7.8-27.3c0-11.2-2.6-20.4-7.8-27.4C653.4,119.4,644.8,115.5,633.8,115.5z
				 M633.8,188.1c-9.3,0-16.2-3.3-21-10c-4.2-5.9-6.3-13.9-6.3-23.6c0-9.7,2.1-17.6,6.3-23.6c4.8-6.8,11.7-10.1,21-10.1
				c9.3,0,16.1,3.3,21,10.1c4.3,5.9,6.4,13.9,6.4,23.6c0,9.8-2.1,17.7-6.3,23.6C650.1,184.8,643.2,188.1,633.8,188.1z"/>
		</g>
		<g>
			<path d="M708.4,115.5c-11,0-19.6,4-25.4,11.8c-5.2,7-7.8,16.1-7.8,27.3c0,11.3,2.6,20.5,7.8,27.3c5.8,7.7,14.3,11.6,25.4,11.6
				s19.7-3.9,25.5-11.6c5.2-6.8,7.8-16,7.8-27.3c0-11.2-2.6-20.4-7.8-27.4C728,119.4,719.5,115.5,708.4,115.5z M708.4,188.1
				c-9.3,0-16.2-3.3-21-10c-4.2-5.9-6.3-13.9-6.3-23.6c0-9.7,2.1-17.6,6.3-23.6c4.8-6.8,11.7-10.1,21-10.1s16.1,3.3,21,10.1
				c4.3,5.9,6.4,13.9,6.4,23.6c0,9.8-2.1,17.7-6.3,23.6C724.7,184.8,717.8,188.1,708.4,188.1z"/>
		</g>
		<g>
			<polygon points="758.7,117.1 752.9,117.1 752.9,191.9 797.1,191.9 797.1,186.3 758.7,186.3 			"/>
		</g>
		<g>
			<path d="M843.2,156.5c-3-1.9-8.3-3.9-16.1-5.9c-0.4-0.2-0.8-0.3-1.1-0.3l-0.4-0.1c-7.1-1.8-11.7-3.7-13.8-5.6
				c-2.7-2.5-4-5.4-4-8.9c0-4.9,1.6-8.5,4.9-11.2c3.1-2.5,7.2-3.8,12.2-3.8c5.5,0,10,1.5,13.4,4.4c3.6,3.1,5.4,7.3,5.5,12.8l0,1.2
				h5.6l-0.1-1.2c-0.4-7.1-2.8-12.7-7.2-16.5c-4.3-3.9-10.1-5.8-17.1-5.8c-6.5,0-11.9,1.7-16,5c-4.6,3.5-6.9,8.6-6.9,15.1
				c0,5.2,1.9,9.6,5.5,12.9c2.4,2.2,7.7,4.4,16.3,6.8c0.4,0.1,0.7,0.2,0.9,0.2l0.4,0.1c7.3,2,12.1,3.7,14.2,5.1
				c4.2,2.6,6.2,6.4,6.2,11.6c0,5-1.9,8.8-6,11.7c-3.5,2.6-8,4-13.4,4c-6.1,0-10.9-1.8-14.4-5.2c-3.5-3.5-5.5-8.3-5.9-14.3l-0.1-1.1
				h-5.7l0.1,1.3c0.5,7.7,3,13.7,7.6,18c4.5,4.4,10.6,6.7,18.3,6.7c7.1,0,13.1-1.8,17.7-5.3c5-4,7.6-9.6,7.6-16.6
				C851.4,165,848.7,160,843.2,156.5z"/>
		</g>
	</g>
	<g>
		<path fill="#FF9587" d="M213.9,865.6c0,7.8-6.4,14.3-14.3,14.3h-95c-7.8,0-14.3-6.4-14.3-14.3V114.4c0-7.8,6.4-14.3,14.3-14.3h95
			c7.8,0,14.3,6.4,14.3,14.3V865.6z"/>
		<path d="M199.7,882.2h-95c-9.2,0-16.6-7.5-16.6-16.6V114.4c0-9.2,7.5-16.6,16.6-16.6h95c9.2,0,16.6,7.5,16.6,16.6v751.2
			C216.3,874.7,208.8,882.2,199.7,882.2z M104.7,102.5c-6.5,0-11.9,5.3-11.9,11.9v751.2c0,6.5,5.3,11.9,11.9,11.9h95
			c6.5,0,11.9-5.3,11.9-11.9V114.4c0-6.6-5.3-11.9-11.9-11.9H104.7z"/>
	</g>
	<g>
		<g>
			<path fill="#FFEEA3" d="M362.6,492.6V280.3c0-23.9-19.4-43.2-43.2-43.2c-23.9,0-43.2,19.4-43.2,43.2v212.3H362.6z"/>
			<path d="M362.6,495h-86.4c-1.3,0-2.4-1.1-2.4-2.4V280.3c0-25.1,20.5-45.6,45.6-45.6c25.1,0,45.6,20.5,45.6,45.6v212.3
				C365,493.9,364,495,362.6,495z M278.6,490.2h81.7v-210c0-22.5-18.3-40.9-40.8-40.9c-22.5,0-40.8,18.3-40.8,40.9V490.2z"/>
		</g>
		<g>
			<path d="M377.9,520.4H261c-1.3,0-2.4-1.1-2.4-2.4v-25.4c0-1.3,1.1-2.4,2.4-2.4h116.9c1.3,0,2.4,1.1,2.4,2.4V518
				C380.2,519.3,379.2,520.4,377.9,520.4z M263.3,515.6h112.2V495H263.3V515.6z"/>
		</g>
		<g>
			<rect x="309.2" y="518" fill="#E6E7E8" width="20.5" height="246.8"/>
			<path d="M329.7,767.2h-20.5c-1.3,0-2.4-1.1-2.4-2.4V518c0-1.3,1.1-2.4,2.4-2.4h20.5c1.3,0,2.4,1.1,2.4,2.4v246.8
				C332,766.1,331,767.2,329.7,767.2z M311.5,762.4h15.8v-242h-15.8V762.4z"/>
		</g>
		<g>
			<polygon fill="#D1D3D4" points="329.7,805.7 309.2,805.7 301.5,764.8 337.3,764.8 			"/>
			<path d="M329.7,808.1h-20.5c-1.1,0-2.1-0.8-2.3-1.9l-7.7-40.9c-0.1-0.7,0.1-1.4,0.5-2c0.5-0.5,1.1-0.9,1.8-0.9h35.8
				c0.7,0,1.4,0.3,1.8,0.9c0.5,0.5,0.6,1.3,0.5,2l-7.7,40.9C331.8,807.2,330.8,808.1,329.7,808.1z M311.1,803.3h16.6l6.8-36.1h-30.1
				L311.1,803.3z"/>
		</g>
		<g>
			<path d="M329.9,403.6c-1.3,0-2.4-1.1-2.4-2.4V277.6c0-5.7,4.6-10.4,10.4-10.4c5.7,0,10.4,4.6,10.4,10.4v41.1
				c0,1.3-1.1,2.4-2.4,2.4c-1.3,0-2.4-1.1-2.4-2.4v-41.1c0-3.1-2.5-5.6-5.6-5.6c-3.1,0-5.6,2.5-5.6,5.6v123.6
				C332.3,402.6,331.2,403.6,329.9,403.6z"/>
		</g>
		<g>
			<path d="M309.4,495c-1.3,0-2.4-1.1-2.4-2.4v-215c0-3.1-2.5-5.6-5.6-5.6c-3.1,0-5.6,2.5-5.6,5.6v69.3c0,1.3-1.1,2.4-2.4,2.4
				s-2.4-1.1-2.4-2.4v-69.3c0-5.7,4.6-10.4,10.4-10.4c5.7,0,10.4,4.6,10.4,10.4v215C311.8,493.9,310.7,495,309.4,495z"/>
		</g>
	</g>
	<g>
		<rect x="114.9" y="100.2" fill="#C1F1FF" width="74.4" height="26.2"/>
		<path d="M189.4,128.7h-74.4c-1.3,0-2.4-1.1-2.4-2.4v-26.2c0-1.3,1.1-2.4,2.4-2.4h74.4c1.3,0,2.4,1.1,2.4,2.4v26.2
			C191.7,127.6,190.7,128.7,189.4,128.7z M117.3,124H187v-21.4h-69.7V124z"/>
	</g>
	<g>
		<rect x="90.4" y="426.8" fill="#C1F1FF" width="26.2" height="117.7"/>
		<path d="M116.6,546.9H90.4c-1.3,0-2.4-1.1-2.4-2.4V426.8c0-1.3,1.1-2.4,2.4-2.4h26.2c1.3,0,2.4,1.1,2.4,2.4v117.7
			C118.9,545.8,117.9,546.9,116.6,546.9z M92.8,542.1h21.4V429.2H92.8V542.1z"/>
	</g>
	<g>
		<path fill="#FFFFFF" d="M152.2,863.1c19,0,35.2-12.5,40.7-29.7h-81.4C117,850.6,133.1,863.1,152.2,863.1z"/>
		<path d="M152.2,865.5c-19.7,0-36.9-12.6-43-31.3c-0.2-0.7-0.1-1.5,0.3-2.1c0.4-0.6,1.2-1,1.9-1h81.4c0.8,0,1.5,0.4,1.9,1
			c0.4,0.6,0.6,1.4,0.3,2.1C189.1,852.9,171.8,865.5,152.2,865.5z M114.9,835.8c6.2,15,20.8,24.9,37.3,24.9
			c16.5,0,31.1-9.9,37.3-24.9H114.9z"/>
	</g>
	<g>
		<path fill="#FFFFFF" d="M152.2,777.6c-19,0-35.2,12.5-40.7,29.7h81.4C187.3,790,171.2,777.6,152.2,777.6z"/>
		<path d="M192.9,809.6h-81.4c-0.8,0-1.5-0.4-1.9-1c-0.4-0.6-0.6-1.4-0.3-2.1c6-18.7,23.3-31.3,43-31.3c19.7,0,36.9,12.6,43,31.3
			c0.2,0.7,0.1,1.5-0.3,2.1C194.3,809.3,193.6,809.6,192.9,809.6z M114.9,804.9h74.6c-6.2-15-20.8-24.9-37.3-24.9
			C135.7,780,121.1,789.8,114.9,804.9z"/>
	</g>
	<g>
		<path fill="#C1F1FF" d="M192.9,807.3h-81.4c-1.3,4.1-2.1,8.5-2.1,13.1s0.7,9,2.1,13.1h81.4c1.3-4.1,2.1-8.5,2.1-13.1
			S194.2,811.4,192.9,807.3z"/>
		<path d="M192.9,835.8h-81.4c-1,0-1.9-0.7-2.3-1.7c-1.4-4.5-2.2-9.1-2.2-13.8c0-4.7,0.7-9.3,2.2-13.8c0.3-1,1.2-1.7,2.3-1.7h81.4
			c1,0,1.9,0.7,2.3,1.7c1.4,4.5,2.2,9.1,2.2,13.8c0,4.7-0.7,9.3-2.2,13.8C194.8,835.1,193.9,835.8,192.9,835.8z M113.2,831h77.9
			c1-3.5,1.4-7.1,1.4-10.7s-0.5-7.2-1.4-10.7h-77.9c-1,3.5-1.4,7.1-1.4,10.7S112.3,827.5,113.2,831z"/>
	</g>
	<g>
		<path d="M178.3,744.4c-1.3,0-2.4-1.1-2.4-2.4V160.9h-23.8c-1.3,0-2.4-1.1-2.4-2.4s1.1-2.4,2.4-2.4h26.1c1.3,0,2.4,1.1,2.4,2.4
			v583.5C180.7,743.4,179.6,744.4,178.3,744.4z"/>
	</g>
	<g>
		<path d="M130.4,744.4c-1.3,0-2.4-1.1-2.4-2.4V627.5c0-1.3,1.1-2.4,2.4-2.4c1.3,0,2.4,1.1,2.4,2.4v114.5
			C132.8,743.4,131.7,744.4,130.4,744.4z"/>
	</g>
	<g>
		<path d="M130.4,258.6c-1.3,0-2.4-1.1-2.4-2.4v-64.3c0-1.3,1.1-2.4,2.4-2.4c1.3,0,2.4,1.1,2.4,2.4v64.3
			C132.8,257.5,131.7,258.6,130.4,258.6z"/>
	</g>
	<g>
		<g>
			<path d="M1292.5,725.5h-138c-0.7,0-1.3-0.3-1.8-0.8c-0.5-0.5-0.6-1.2-0.5-1.9l1-6.6c0.1-0.6,0.4-1.2,1-1.6l6.4-4.6l-15.5-21.4
				c-0.8-1.1-0.5-2.6,0.5-3.3l21.4-15.5l-15.5-21.4c-0.4-0.5-0.5-1.2-0.4-1.8c0.1-0.6,0.4-1.2,1-1.5l21.4-15.5l-15.5-21.4
				c-0.4-0.5-0.5-1.1-0.4-1.8c0.1-0.6,0.4-1.2,1-1.5l21.4-15.5l-15.5-21.4c-0.4-0.5-0.5-1.1-0.4-1.8c0.1-0.6,0.4-1.2,1-1.5
				l21.4-15.5l-15.5-21.4c-0.8-1.1-0.5-2.6,0.5-3.3l21.4-15.5l-15.5-21.4c-0.8-1.1-0.5-2.6,0.5-3.3l21.4-15.5l-15.5-21.4
				c-0.8-1.1-0.5-2.5,0.5-3.3l21.4-15.5l-15.5-21.4c-0.4-0.5-0.5-1.2-0.4-1.8c0.1-0.6,0.4-1.2,1-1.5l21.4-15.5l-15.5-21.4
				c-0.8-1.1-0.5-2.6,0.5-3.3l21.4-15.5l-15.5-21.4c-0.8-1.1-0.5-2.6,0.5-3.3l21.4-15.5l-15.5-21.4c-0.8-1.1-0.5-2.6,0.5-3.3
				l21.4-15.5l-15.5-21.4c-0.4-0.5-0.5-1.1-0.4-1.8c0.1-0.6,0.4-1.2,1-1.5l21.4-15.5l-15.5-21.4c-0.4-0.5-0.5-1.2-0.4-1.8
				c0.1-0.6,0.4-1.2,1-1.5l21.4-15.5l-15.5-21.4c-0.4-0.5-0.5-1.2-0.4-1.8c0.1-0.6,0.4-1.2,1-1.5l21.4-15.5l-10.7-14.8
				c-0.4-0.5-0.5-1.1-0.4-1.7l2-13.8c0.1-0.8,0.6-1.5,1.4-1.8c0.7-0.3,1.6-0.3,2.3,0.2l47.9,30.5c0.7,0.4,1.1,1.2,1.1,2v575.5
				C1294.9,724.4,1293.8,725.5,1292.5,725.5z M1157.2,720.7h132.9V148.9l-43.7-27.8l-1.4,9.2l11.5,15.9c0.8,1.1,0.5,2.5-0.5,3.3
				l-21.4,15.5l15.5,21.4c0.8,1.1,0.5,2.6-0.5,3.3l-21.4,15.5l15.5,21.4c0.4,0.5,0.5,1.2,0.4,1.8c-0.1,0.6-0.4,1.2-1,1.5l-21.4,15.5
				l15.5,21.4c0.8,1.1,0.5,2.5-0.5,3.3l-21.4,15.5l15.5,21.4c0.4,0.5,0.5,1.1,0.4,1.8c-0.1,0.6-0.4,1.2-1,1.5l-21.4,15.5l15.5,21.4
				c0.4,0.5,0.5,1.2,0.4,1.8c-0.1,0.6-0.4,1.2-1,1.5l-21.4,15.5l15.5,21.4c0.4,0.5,0.5,1.1,0.4,1.8c-0.1,0.6-0.4,1.2-1,1.5
				l-21.4,15.5l15.5,21.4c0.8,1.1,0.5,2.5-0.5,3.3l-21.4,15.5l15.5,21.4c0.8,1.1,0.5,2.6-0.5,3.3l-21.4,15.5l15.5,21.4
				c0.8,1.1,0.5,2.5-0.5,3.3l-21.4,15.5l15.5,21.4c0.4,0.5,0.5,1.2,0.4,1.8c-0.1,0.6-0.4,1.2-1,1.5l-21.4,15.5l15.5,21.4
				c0.4,0.5,0.5,1.1,0.4,1.8c-0.1,0.6-0.4,1.2-1,1.5l-21.4,15.5l15.5,21.4c0.8,1.1,0.5,2.5-0.5,3.3l-21.4,15.5l15.5,21.4
				c0.4,0.5,0.5,1.2,0.4,1.8c-0.1,0.6-0.4,1.2-1,1.5l-21.4,15.5l15.5,21.4c0.4,0.5,0.5,1.1,0.4,1.8c-0.1,0.6-0.4,1.2-1,1.5l-7.5,5.4
				L1157.2,720.7z"/>
		</g>
		<g>
			<path fill="#FF9587" d="M1120.9,877.6c0,7.8,6.3,13.3,14.1,12.2l169.4-24.9c7.8-1.1,14.1-8.5,14.1-16.3V737.3
				c0-7.8-6.4-14.3-14.3-14.3h-169.1c-7.8,0-14.3,6.4-14.3,14.3V877.6z"/>
			<path d="M1133,892.3L1133,892.3c-8.2,0-14.5-6.3-14.5-14.7V737.3c0-9.2,7.5-16.6,16.6-16.6h169.1c9.2,0,16.6,7.5,16.6,16.6v111.2
				c0,9-7.2,17.4-16.1,18.7l-169.4,24.9C1134.5,892.3,1133.7,892.3,1133,892.3z M1135.1,725.5c-6.5,0-11.9,5.3-11.9,11.9v140.3
				c0,6.3,4.9,10.8,11.4,9.8l169.4-24.9c6.5-1,12.1-7.4,12.1-14V737.3c0-6.5-5.3-11.9-11.9-11.9H1135.1z"/>
		</g>
		<g>
			<path fill="#FFFFFF" d="M1292.1,813.5c1.5,9.7-5.2,18.8-15,20.3l-109.6,16.5c-9.7,1.5-18.8-5.2-20.3-15l0,0
				c-1.5-9.7,5.2-18.8,15-20.3l109.6-16.5C1281.6,797,1290.7,803.7,1292.1,813.5L1292.1,813.5z"/>
			<path d="M1164.9,852.8c-9.9,0-18.5-7.4-19.9-17.2c-1.7-11,6-21.3,17-23l109.6-16.5c11-1.7,21.3,6.2,23,17
				c0.8,5.3-0.5,10.7-3.7,15c-3.2,4.3-7.9,7.2-13.2,8l-109.6,16.5C1166.9,852.7,1165.9,852.8,1164.9,852.8z M1274.5,800.7
				c-0.8,0-1.5,0.1-2.3,0.2l-109.6,16.5c-8.4,1.3-14.2,9.1-13,17.6c1.2,8.3,9.1,14.2,17.6,13l109.6-16.5c8.4-1.3,14.2-9.1,13-17.6
				C1288.6,806.3,1282.1,800.7,1274.5,800.7z"/>
		</g>
		<g>
			<path d="M1239.8,758.6h-92.9c-1.3,0-2.4-1.1-2.4-2.4c0-1.3,1.1-2.4,2.4-2.4h92.9c1.3,0,2.4,1.1,2.4,2.4
				C1242.2,757.5,1241.2,758.6,1239.8,758.6z"/>
		</g>
		<g>
			<path d="M1188.2,783.9h-41.3c-1.3,0-2.4-1.1-2.4-2.4c0-1.3,1.1-2.4,2.4-2.4h41.3c1.3,0,2.4,1.1,2.4,2.4
				C1190.6,782.9,1189.5,783.9,1188.2,783.9z"/>
		</g>
	</g>
	<g>
		<g>
			<g>
				<polygon fill="#E6E7E8" points="1070.6,598.1 1070.6,601.2 1087.8,643 1105,601.2 1090.4,586.8 				"/>
				<path d="M1087.8,645.4c-1,0-1.8-0.6-2.2-1.5l-17.2-41.8c-0.1-0.3-0.2-0.6-0.2-0.9v-3.1c0-0.9,0.5-1.6,1.2-2.1l19.8-11.3
					c0.9-0.5,2.1-0.4,2.8,0.4l14.6,14.4c0.7,0.7,0.9,1.7,0.5,2.6l-17.2,41.8C1089.7,644.8,1088.8,645.4,1087.8,645.4z M1073,600.7
					l14.8,36l14.4-35l-12.2-12l-17,9.8V600.7z"/>
			</g>
			<g>
				<polygon fill="#BCBEC0" points="1070.6,258.4 1070.6,598.1 1090.4,586.8 1105,601.2 1105,258.4 				"/>
				<path d="M1105,603.6c-0.6,0-1.2-0.2-1.7-0.7l-13.4-13.2l-18.2,10.4c-0.7,0.4-1.6,0.4-2.4,0c-0.7-0.4-1.2-1.2-1.2-2.1V258.4
					c0-1.3,1.1-2.4,2.4-2.4h34.4c1.3,0,2.4,1.1,2.4,2.4v342.8c0,1-0.6,1.8-1.5,2.2C1105.7,603.5,1105.4,603.6,1105,603.6z
					 M1090.4,584.4c0.6,0,1.2,0.2,1.7,0.7l10.6,10.5V260.8H1073V594l16.2-9.3C1089.6,584.5,1090,584.4,1090.4,584.4z"/>
			</g>
		</g>
		<g>
			<path d="M1138.9,239.4h-102.1c-1.3,0-2.4-1.1-2.4-2.4c0-1.3,1.1-2.4,2.4-2.4h102.1c1.3,0,2.4,1.1,2.4,2.4
				C1141.3,238.4,1140.2,239.4,1138.9,239.4z"/>
		</g>
		<g>
			<polygon fill="#E6E7E8" points="1115.1,258.4 1127.5,237 1048.2,237 1060.5,258.4 			"/>
			<path d="M1115.1,260.8h-54.6c-0.8,0-1.6-0.5-2.1-1.2l-12.3-21.4c-0.4-0.7-0.4-1.6,0-2.4c0.4-0.7,1.2-1.2,2.1-1.2h79.3
				c0.8,0,1.6,0.5,2.1,1.2c0.4,0.7,0.4,1.6,0,2.4l-12.3,21.4C1116.8,260.3,1116,260.8,1115.1,260.8z M1061.9,256.1h51.8l9.6-16.6
				h-71L1061.9,256.1z"/>
		</g>
		<g>
			<path d="M1085.4,306.7c-0.8,0-1.5-0.4-2-1.1c-0.7-1.1-0.4-2.6,0.7-3.3l19.6-13.1c1.1-0.7,2.6-0.4,3.3,0.7
				c0.7,1.1,0.4,2.6-0.7,3.3l-19.6,13.1C1086.4,306.6,1085.9,306.7,1085.4,306.7z"/>
		</g>
		<g>
			<path d="M1085.4,356.1c-0.8,0-1.5-0.4-2-1.1c-0.7-1.1-0.4-2.6,0.7-3.3l19.6-13.1c1.1-0.7,2.6-0.4,3.3,0.7
				c0.7,1.1,0.4,2.6-0.7,3.3l-19.6,13.1C1086.4,356,1085.9,356.1,1085.4,356.1z"/>
		</g>
		<g>
			<path d="M1085.4,405.5c-0.8,0-1.5-0.4-2-1.1c-0.7-1.1-0.4-2.6,0.7-3.3l19.6-13.1c1.1-0.7,2.6-0.4,3.3,0.7
				c0.7,1.1,0.4,2.6-0.7,3.3l-19.6,13.1C1086.4,405.4,1085.9,405.5,1085.4,405.5z"/>
		</g>
		<g>
			<path d="M1085.4,455c-0.8,0-1.5-0.4-2-1.1c-0.7-1.1-0.4-2.6,0.7-3.3l19.6-13.1c1.1-0.7,2.6-0.4,3.3,0.7c0.7,1.1,0.4,2.6-0.7,3.3
				l-19.6,13.1C1086.4,454.8,1085.9,455,1085.4,455z"/>
		</g>
		<g>
			<path d="M1085.4,504.4c-0.8,0-1.5-0.4-2-1.1c-0.7-1.1-0.4-2.6,0.7-3.3l19.6-13.1c1.1-0.7,2.6-0.4,3.3,0.7
				c0.7,1.1,0.4,2.6-0.7,3.3l-19.6,13.1C1086.4,504.2,1085.9,504.4,1085.4,504.4z"/>
		</g>
		<g>
			<path d="M1085.4,553.8c-0.8,0-1.5-0.4-2-1.1c-0.7-1.1-0.4-2.6,0.7-3.3l19.6-13.1c1.1-0.7,2.6-0.4,3.3,0.7
				c0.7,1.1,0.4,2.6-0.7,3.3l-19.6,13.1C1086.4,553.7,1085.9,553.8,1085.4,553.8z"/>
		</g>
	</g>
	<g>
		<path d="M431.7,844h-53.8c-1.3,0-2.4-1.1-2.4-2.4c0-1.3,1.1-2.4,2.4-2.4h53.8c1.3,0,2.4,1.1,2.4,2.4C434,843,433,844,431.7,844z"
			/>
	</g>
	<g>
		<path d="M583.7,844h-53.8c-1.3,0-2.4-1.1-2.4-2.4c0-1.3,1.1-2.4,2.4-2.4h53.8c1.3,0,2.4,1.1,2.4,2.4C586,843,585,844,583.7,844z"
			/>
	</g>
	<g>
		<path d="M726.9,844h-53.8c-1.3,0-2.4-1.1-2.4-2.4c0-1.3,1.1-2.4,2.4-2.4h53.8c1.3,0,2.4,1.1,2.4,2.4
			C729.3,843,728.2,844,726.9,844z"/>
	</g>
	<g>
		<path d="M873.6,844h-53.8c-1.3,0-2.4-1.1-2.4-2.4c0-1.3,1.1-2.4,2.4-2.4h53.8c1.3,0,2.4,1.1,2.4,2.4
			C875.9,843,874.9,844,873.6,844z"/>
	</g>
	<g>
		<path d="M1022.6,844h-53.8c-1.3,0-2.4-1.1-2.4-2.4c0-1.3,1.1-2.4,2.4-2.4h53.8c1.3,0,2.4,1.1,2.4,2.4
			C1025,843,1023.9,844,1022.6,844z"/>
	</g>
</g>
</svg>
