<?xml version="1.0" encoding="utf-8"?>
<!-- Generator: Adobe Illustrator 16.0.0, SVG Export Plug-In . SVG Version: 6.00 Build 0)  -->
<!DOCTYPE svg PUBLIC "-//W3C//DTD SVG 1.1//EN" "http://www.w3.org/Graphics/SVG/1.1/DTD/svg11.dtd">
<svg version="1.1" id="Layer_1" xmlns="http://www.w3.org/2000/svg" xmlns:xlink="http://www.w3.org/1999/xlink" x="0px" y="0px"
	 width="1400px" height="980px" viewBox="0 0 1400 980" enable-background="new 0 0 1400 980" xml:space="preserve">
<g>
	<g>
		<g>
			<rect x="0.001" fill="#FFFFFF" width="1399.994" height="980"/>
		</g>
	</g>
	<g>
		<path fill="#FBCC38" d="M1027.506,490.001c0,180.874-146.631,327.504-327.508,327.504S372.49,670.875,372.49,490.001
			c0-180.88,146.631-327.507,327.508-327.507S1027.506,309.122,1027.506,490.001z"/>
		<path d="M699.998,819.123c-181.48,0-329.125-147.645-329.125-329.122c0-181.48,147.645-329.124,329.125-329.124
			c181.479,0,329.124,147.644,329.124,329.124C1029.122,671.479,881.478,819.123,699.998,819.123z M699.998,164.11
			c-179.696,0-325.891,146.195-325.891,325.891S520.302,815.89,699.998,815.89s325.891-146.192,325.891-325.888
			S879.694,164.11,699.998,164.11z"/>
	</g>
	<g>
		<rect x="515.97" y="359.076" fill="#FFFFFF" width="215.013" height="294.228"/>
		<path d="M732.599,654.921H514.353V357.459h218.246V654.921z M517.586,651.688h211.78V360.693h-211.78V651.688z"/>
	</g>
	<g>
		<rect x="546.686" y="394.642" fill="#95E1FF" width="155.197" height="116.398"/>
		<path d="M703.5,512.656H545.069V393.025H703.5V512.656z M548.303,509.423h151.963V396.259H548.303V509.423z"/>
	</g>
	<g>
		<rect x="679.711" y="497.03" fill="#FFFFFF" width="22.172" height="14.01"/>
		<path d="M703.5,512.656h-25.406v-17.243H703.5V512.656z M681.328,509.423h18.938v-10.776h-18.938V509.423z"/>
	</g>
	<g>
		<rect x="657.542" y="462.001" fill="#FFFFFF" width="22.168" height="49.039"/>
		<path d="M681.328,512.656h-25.402v-52.272h25.402V512.656z M659.159,509.423h18.935v-45.805h-18.935V509.423z"/>
	</g>
	<g>
		<rect x="635.371" y="477.091" fill="#FFFFFF" width="22.172" height="33.949"/>
		<path d="M659.159,512.656h-25.405v-37.182h25.405V512.656z M636.987,509.423h18.938v-30.716h-18.938V509.423z"/>
	</g>
	<g>
		<rect x="613.198" y="452.841" fill="#FFFFFF" width="22.172" height="58.199"/>
		<path d="M636.987,512.656h-25.405v-61.432h25.405V512.656z M614.815,509.423h18.939v-54.965h-18.939V509.423z"/>
	</g>
	<g>
		<rect x="591.026" y="436.135" fill="#FFFFFF" width="22.172" height="74.905"/>
		<path d="M614.815,512.656H589.41v-78.138h25.405V512.656z M592.643,509.423h18.939v-71.671h-18.939V509.423z"/>
	</g>
	<g>
		<rect x="568.854" y="472.781" fill="#FFFFFF" width="22.172" height="38.259"/>
		<path d="M592.643,512.656h-25.405v-41.492h25.405V512.656z M570.471,509.423h18.939v-35.025h-18.939V509.423z"/>
	</g>
	<g>
		<rect x="546.686" y="497.03" fill="#FFFFFF" width="22.168" height="14.01"/>
		<path d="M570.471,512.656h-25.402v-17.243h25.402V512.656z M548.303,509.423h18.936v-10.776h-18.936V509.423z"/>
	</g>
	<g>
		<line fill="#FFFFFF" x1="641.527" y1="533.673" x2="470.164" y2="533.673"/>
		<rect x="470.164" y="532.057" width="171.363" height="3.232"/>
	</g>
	<g>
		<line fill="#FFFFFF" x1="641.527" y1="553.072" x2="470.164" y2="553.072"/>
		<rect x="470.164" y="551.456" width="171.363" height="3.233"/>
	</g>
	<g>
		<line fill="#FFFFFF" x1="641.527" y1="572.472" x2="470.164" y2="572.472"/>
		<rect x="470.164" y="570.855" width="171.363" height="3.233"/>
	</g>
	<g>
		<rect x="668.625" y="533.673" fill="#FF8F7C" width="33.258" height="81.908"/>
		<path d="M703.5,617.198h-36.492v-85.142H703.5V617.198z M670.242,613.965h30.024v-78.676h-30.024V613.965z"/>
	</g>
	<g>
		<line fill="#FFFFFF" x1="641.527" y1="615.581" x2="602.112" y2="615.581"/>
		<rect x="602.112" y="613.965" width="39.415" height="3.233"/>
	</g>
	<g>
		<line fill="#FFFFFF" x1="668.625" y1="632.287" x2="748.766" y2="632.287"/>
		<rect x="668.625" y="630.671" width="80.141" height="3.233"/>
	</g>
	<g>
		<rect x="765.74" y="388.314" fill="#A085F8" width="164.088" height="105.344"/>
		<path d="M931.445,495.274H764.123V386.698h167.322V495.274z M767.356,492.041h160.855v-102.11H767.356V492.041z"/>
	</g>
	<g>
		<polyline fill="#A085F8" points="765.74,388.314 847.784,452.127 929.828,388.314 		"/>
		<polygon points="847.784,454.177 764.745,389.59 766.734,387.039 847.784,450.078 928.834,387.039 930.823,389.59 		"/>
	</g>
	<g>
		<path fill="#95E1FF" d="M784.366,525.063c-10.287,0-18.626,8.339-18.626,18.626v24.354h6.447h8.118h8.121h8.118h6.447v-24.354
			C802.992,533.401,794.653,525.063,784.366,525.063z"/>
		<path d="M804.608,569.659h-40.485v-25.971c0-11.162,9.081-20.243,20.243-20.243c11.161,0,20.242,9.081,20.242,20.243V569.659z
			 M767.356,566.426h34.019v-22.737c0-9.378-7.631-17.01-17.009-17.01s-17.01,7.632-17.01,17.01V566.426z"/>
	</g>
	<g>
		<polygon fill="#FFFFFF" points="788.427,696.748 784.366,696.748 780.306,696.748 772.188,696.748 765.74,696.748 778.209,725.38 
			792.863,720.006 802.992,696.748 796.545,696.748 		"/>
		<path d="M778.209,726.996c-0.625,0-1.219-0.366-1.48-0.972l-12.47-28.633c-0.221-0.499-0.17-1.073,0.127-1.531
			c0.303-0.454,0.808-0.729,1.354-0.729h37.252c0.546,0,1.052,0.275,1.354,0.729c0.297,0.458,0.348,1.032,0.126,1.531
			l-10.129,23.259c-0.177,0.407-0.512,0.723-0.922,0.874l-14.654,5.374C778.585,726.965,778.396,726.996,778.209,726.996z
			 M768.206,698.364l10.878,24.973l12.572-4.61l8.87-20.362H768.206z"/>
	</g>
	<g>
		<polygon fill="#FFFFFF" points="784.366,739.516 792.863,720.006 778.209,725.38 		"/>
		<path d="M784.366,741.133c-0.645,0-1.226-0.382-1.484-0.973l-6.153-14.136c-0.177-0.407-0.181-0.872-0.004-1.279
			c0.177-0.41,0.512-0.729,0.929-0.884l14.65-5.374c0.609-0.225,1.292-0.063,1.737,0.41c0.441,0.471,0.562,1.162,0.303,1.753
			l-8.494,19.51C785.591,740.751,785.01,741.133,784.366,741.133z M780.378,726.309l3.988,9.159l5.507-12.643L780.378,726.309z"/>
	</g>
	<g>
		<polygon fill="#FF8F7C" points="780.306,568.042 774.395,568.042 774.395,696.748 780.306,696.748 784.366,696.748 
			784.366,568.042 		"/>
		<path d="M785.982,698.364h-13.204V566.426h13.204V698.364z M776.012,695.131h6.737V569.659h-6.737V695.131z"/>
	</g>
	<g>
		<polygon fill="#FFFFFF" points="772.188,568.042 765.74,568.042 765.74,696.748 772.188,696.748 774.395,696.748 774.395,568.042 
					"/>
		<path d="M774.395,698.364h-8.654c-0.894,0-1.617-0.723-1.617-1.616V568.042c0-0.894,0.724-1.616,1.617-1.616h8.654
			c0.896,0,1.617,0.723,1.617,1.616v128.706C776.012,697.642,775.291,698.364,774.395,698.364z M767.356,695.131h5.422V569.659
			h-5.422V695.131z"/>
	</g>
	<g>
		<polygon fill="#FFFFFF" points="788.427,568.042 784.366,568.042 784.366,696.748 788.427,696.748 794.334,696.748 
			794.334,568.042 		"/>
		<path d="M794.334,698.364h-9.968c-0.894,0-1.617-0.723-1.617-1.616V568.042c0-0.894,0.724-1.616,1.617-1.616h9.968
			c0.894,0,1.617,0.723,1.617,1.616v128.706C795.951,697.642,795.228,698.364,794.334,698.364z M785.982,695.131h6.735V569.659
			h-6.735V695.131z"/>
	</g>
	<g>
		<polygon fill="#FF8F7C" points="796.545,568.042 794.334,568.042 794.334,696.748 796.545,696.748 802.992,696.748 
			802.992,568.042 		"/>
		<path d="M804.608,698.364h-11.891V566.426h11.891V698.364z M795.951,695.131h5.424V569.659h-5.424V695.131z"/>
	</g>
	<g>
		<path d="M864.352,556.789c-7.348,0-13.324-5.978-13.324-13.321c0-7.345,5.977-13.322,13.324-13.322
			c7.345,0,13.324,5.978,13.324,13.322C877.676,550.812,871.696,556.789,864.352,556.789z M864.352,533.379
			c-5.563,0-10.091,4.525-10.091,10.089s4.527,10.088,10.091,10.088s10.092-4.524,10.092-10.088S869.915,533.379,864.352,533.379z"
			/>
	</g>
	<g>
		<path d="M864.352,617.198c-7.348,0-13.324-5.978-13.324-13.321c0-7.345,5.977-13.322,13.324-13.322
			c7.345,0,13.324,5.978,13.324,13.322C877.676,611.221,871.696,617.198,864.352,617.198z M864.352,593.788
			c-5.563,0-10.091,4.524-10.091,10.089c0,5.563,4.527,10.088,10.091,10.088s10.092-4.524,10.092-10.088
			C874.443,598.313,869.915,593.788,864.352,593.788z"/>
	</g>
	<g>
		<path d="M864.352,677.607c-7.348,0-13.324-5.978-13.324-13.322c0-7.344,5.977-13.321,13.324-13.321
			c7.345,0,13.324,5.978,13.324,13.321C877.676,671.63,871.696,677.607,864.352,677.607z M864.352,654.197
			c-5.563,0-10.091,4.524-10.091,10.088c0,5.564,4.527,10.089,10.091,10.089s10.092-4.524,10.092-10.089
			C874.443,658.722,869.915,654.197,864.352,654.197z"/>
	</g>
	<g>
		<rect x="621.822" y="238.748" fill="#E0B533" width="29.099" height="29.099"/>
	</g>
	<g>
		<rect x="670.706" y="238.748" fill="#E0B533" width="122.16" height="29.099"/>
	</g>
	<g>
		<rect x="621.822" y="285.63" fill="#E0B533" width="29.099" height="29.1"/>
	</g>
	<g>
		<rect x="705.037" y="696.514" fill="#E0B533" width="29.1" height="29.1"/>
	</g>
	<g>
		<rect x="656.156" y="696.514" fill="#E0B533" width="29.1" height="29.1"/>
	</g>
	<g>
		<rect x="607.275" y="696.514" fill="#E0B533" width="29.1" height="29.1"/>
	</g>
	<g>
		<rect x="670.703" y="285.63" fill="#E0B533" width="29.1" height="29.1"/>
	</g>
	<g>
		<rect x="719.587" y="285.63" fill="#E0B533" width="29.1" height="29.1"/>
	</g>
	<g>
		<rect x="768.472" y="285.63" fill="#E0B533" width="76.209" height="29.1"/>
	</g>
	<g>
		<rect x="515.97" y="313.113" width="75.057" height="3.233"/>
	</g>
	<g>
		<rect x="546.686" y="284.013" width="44.34" height="3.233"/>
	</g>
	<g>
		<rect x="607.275" y="747.053" width="63.428" height="3.233"/>
	</g>
	<g>
		<rect x="690.797" y="747.053" width="17.896" height="3.233"/>
	</g>
	<g>
		<rect x="730.982" y="747.053" width="22.358" height="3.233"/>
	</g>
	<g>
		<rect x="770.069" y="357.459" width="82.574" height="3.233"/>
	</g>
	<g>
		<rect x="876.06" y="357.459" width="30.861" height="3.233"/>
	</g>
	<g>
		<path fill="#FFFFFF" d="M1172.353,810.326v40.86h31.41v-41.341C1193.273,811.052,1182.753,811.204,1172.353,810.326z"/>
		<path d="M1203.763,852.804h-31.41c-0.897,0-1.617-0.724-1.617-1.617v-40.86c0-0.452,0.189-0.885,0.521-1.19
			c0.335-0.307,0.771-0.448,1.228-0.42c10.294,0.868,20.809,0.71,31.092-0.478c0.458-0.06,0.919,0.092,1.261,0.401
			c0.344,0.307,0.543,0.745,0.543,1.206v41.341C1205.38,852.08,1204.653,852.804,1203.763,852.804z M1173.969,849.57h28.178v-37.922
			c-9.347,0.967-18.818,1.118-28.178,0.427V849.57z"/>
	</g>
	<g>
		<path fill="#FFFFFF" d="M1105.187,516.793c-75.143,44.382-100.08,141.272-55.705,216.414
			c27.054,45.803,73.614,72.951,122.871,77.119c10.4,0.878,20.921,0.726,31.41-0.48c21.313-2.463,42.469-9.32,62.134-20.94
			L1105.187,516.793z"/>
		<path d="M1185.639,812.501L1185.639,812.501c-4.465,0-8.979-0.189-13.426-0.564c-51.482-4.357-97.882-33.479-124.12-77.908
			c-44.761-75.789-19.514-173.864,56.272-218.628c0.366-0.218,0.809-0.284,1.225-0.174c0.417,0.107,0.771,0.376,0.992,0.745
			l160.703,272.113c0.455,0.767,0.202,1.759-0.568,2.213c-19.402,11.465-40.523,18.582-62.771,21.155
			C1197.89,812.147,1191.729,812.501,1185.639,812.501z M1104.624,519.013c-73.169,44.233-97.326,139.586-53.747,213.374
			c25.702,43.525,71.167,72.06,121.607,76.329c10.294,0.868,20.802,0.71,31.092-0.478c21.263-2.456,41.475-9.153,60.101-19.91
			L1104.624,519.013z"/>
	</g>
	<g>
		<g>
			<path fill="#FFFFFF" d="M1245.973,617.163l54.896-32.424c-19.197-32.494-49.982-53.89-83.995-62.086
				c-6.41,13.987-14.821,27.129-25.108,38.976C1213.361,575.074,1232.143,593.738,1245.973,617.163z"/>
			<path d="M1245.973,618.78c-0.133,0-0.269-0.017-0.401-0.051c-0.413-0.107-0.773-0.376-0.988-0.745
				c-13.369-22.637-31.423-41.133-53.671-54.981c-0.404-0.253-0.676-0.666-0.745-1.134c-0.069-0.467,0.069-0.944,0.379-1.301
				c10.082-11.61,18.446-24.594,24.858-38.588c0.322-0.701,1.096-1.058,1.848-0.899c36.008,8.677,66.196,30.993,85.012,62.837
				c0.215,0.366,0.278,0.809,0.171,1.225c-0.107,0.414-0.372,0.771-0.742,0.989l-54.896,32.424
				C1246.547,618.704,1246.263,618.78,1245.973,618.78z M1194.215,561.26c21.509,13.723,39.1,31.773,52.322,53.693l52.108-30.779
				c-18.187-29.968-46.807-51.076-80.863-59.633C1211.581,537.784,1203.662,550.123,1194.215,561.26z"/>
		</g>
		<g>
			<path fill="#FFFFFF" d="M1268.429,691.446c15.345-3.287,30.911-4.319,46.251-3.183c9.245-33.731,5.38-71.027-13.812-103.524
				l-54.896,32.424C1259.796,640.573,1267.083,666.035,1268.429,691.446z"/>
			<path d="M1268.429,693.063c-0.351,0-0.695-0.113-0.982-0.331c-0.376-0.29-0.606-0.727-0.632-1.2
				c-1.386-26.162-8.862-50.908-22.231-73.547c-0.454-0.768-0.202-1.759,0.568-2.214l54.896-32.424
				c0.366-0.215,0.808-0.281,1.225-0.174s0.771,0.376,0.991,0.745c18.804,31.844,23.767,69.051,13.976,104.771
				c-0.208,0.745-0.916,1.248-1.68,1.188c-15.264-1.134-30.782-0.063-45.79,3.151
				C1268.656,693.051,1268.542,693.063,1268.429,693.063z M1248.183,617.738c12.63,21.881,20.126,46.613,21.752,71.744
				c14.294-2.896,28.977-3.887,43.526-2.924c8.961-33.956,4.294-69.209-13.167-99.6L1248.183,617.738z"/>
		</g>
		<g>
			<path fill="#FFFFFF" d="M1191.765,561.629c10.287-11.847,18.698-24.988,25.108-38.976c-32.528-7.824-68-3.577-99.113,14.676
				C1143.916,539.375,1169.353,547.66,1191.765,561.629z"/>
			<path d="M1191.765,563.246c-0.294,0-0.587-0.079-0.853-0.243c-22.002-13.713-47.344-22.033-73.279-24.063
				c-0.707-0.054-1.295-0.559-1.452-1.247c-0.158-0.688,0.151-1.398,0.758-1.759c20.786-12.191,44.451-18.639,68.438-18.639
				c10.71,0,21.437,1.275,31.875,3.786c0.471,0.113,0.865,0.429,1.076,0.865c0.212,0.436,0.219,0.94,0.016,1.38
				c-6.542,14.274-15.073,27.521-25.357,39.364C1192.671,563.054,1192.219,563.246,1191.765,563.246z M1123.063,536.205
				c24.177,2.665,47.688,10.676,68.379,23.324c9.252-10.843,17.025-22.856,23.126-35.752
				C1183.751,516.844,1150.894,521.299,1123.063,536.205z"/>
		</g>
		<g>
			<path fill="#FFFFFF" d="M1125.104,688.548l-54.896,32.415c19.191,32.5,49.983,53.886,83.996,62.069
				c6.409-13.975,14.821-27.11,25.108-38.95C1157.714,730.625,1138.934,711.964,1125.104,688.548z"/>
			<path d="M1154.203,784.649c-0.126,0-0.253-0.016-0.379-0.044c-36.015-8.668-66.203-30.979-85.006-62.822
				c-0.455-0.767-0.202-1.759,0.568-2.213l54.893-32.415c0.773-0.445,1.762-0.199,2.214,0.571
				c13.362,22.617,31.42,41.117,53.671,54.981c0.404,0.253,0.676,0.666,0.745,1.134c0.069,0.467-0.069,0.944-0.379,1.301
				c-10.085,11.61-18.446,24.584-24.859,38.563C1155.402,784.289,1154.822,784.649,1154.203,784.649z M1072.431,721.527
				c18.181,29.968,46.8,51.073,80.863,59.617c6.198-13.23,14.12-25.561,23.567-36.693c-21.512-13.741-39.103-31.793-52.323-53.693
				L1072.431,721.527z"/>
		</g>
		<g>
			<path fill="#FFFFFF" d="M1102.642,614.265c-15.333,3.284-30.906,4.307-46.245,3.17c-9.245,33.734-5.38,71.031,13.811,103.528
				l54.896-32.415C1111.268,665.119,1103.992,639.663,1102.642,614.265z"/>
			<path d="M1070.211,722.579c-0.553,0-1.093-0.284-1.393-0.796c-18.807-31.84-23.77-69.051-13.981-104.774
				c0.202-0.749,0.899-1.272,1.68-1.188c15.288,1.13,30.811,0.069,45.79-3.139c0.464-0.088,0.944,0.01,1.319,0.297
				c0.373,0.29,0.606,0.727,0.632,1.2c1.393,26.169,8.873,50.914,22.235,73.547c0.454,0.768,0.202,1.759-0.568,2.214l-54.894,32.415
				C1070.772,722.507,1070.491,722.579,1070.211,722.579z M1057.609,619.14c-8.952,33.962-4.285,69.216,13.179,99.604l52.105-30.771
				c-12.801-22.159-20.12-46.279-21.755-71.744C1086.873,619.111,1072.181,620.097,1057.609,619.14z"/>
		</g>
		<g>
			<path fill="#FFFFFF" d="M1125.104,688.548c13.83,23.416,32.61,42.077,54.208,55.534c11.247-12.952,24.698-24.37,40.283-33.564
				l-34.057-57.665L1125.104,688.548z"/>
			<path d="M1179.309,745.698c-0.294,0-0.591-0.079-0.856-0.243c-22.695-14.146-41.113-33.015-54.744-56.086
				c-0.215-0.37-0.278-0.809-0.171-1.226c0.107-0.413,0.373-0.771,0.742-0.988l60.438-35.695c0.369-0.218,0.809-0.281,1.226-0.174
				s0.771,0.376,0.991,0.745l34.057,57.665c0.215,0.37,0.278,0.809,0.171,1.226c-0.107,0.413-0.373,0.771-0.745,0.988
				c-14.998,8.851-28.418,20.031-39.886,33.232C1180.215,745.506,1179.766,745.698,1179.309,745.698z M1127.323,689.113
				c13.037,21.597,30.413,39.37,51.679,52.865c11.133-12.604,24.035-23.371,38.383-32.026l-32.415-54.887L1127.323,689.113z"/>
		</g>
		<g>
			<path fill="#FFFFFF" d="M1151.481,595.181c-15.579,9.207-32.074,15.472-48.84,19.084c1.351,25.398,8.626,50.854,22.462,74.283
				l60.435-35.695L1151.481,595.181z"/>
			<path d="M1125.104,690.164c-0.136,0-0.271-0.016-0.404-0.05c-0.417-0.107-0.771-0.376-0.991-0.745
				c-13.628-23.085-21.26-48.326-22.681-75.02c-0.041-0.792,0.499-1.5,1.272-1.667c17.114-3.685,33.382-10.044,48.357-18.895
				c0.369-0.218,0.805-0.284,1.226-0.174c0.413,0.107,0.773,0.376,0.988,0.745l34.063,57.672c0.451,0.768,0.195,1.759-0.571,2.214
				l-60.438,35.695C1125.672,690.089,1125.388,690.164,1125.104,690.164z M1104.334,615.547c1.547,25.13,8.721,48.925,21.344,70.781
				l57.65-34.044l-32.422-54.896C1136.417,605.762,1120.766,611.865,1104.334,615.547z"/>
		</g>
		<g>
			<path fill="#FFFFFF" d="M1185.538,652.853l60.435-35.689c-13.83-23.425-32.611-42.089-54.208-55.534
				c-11.247,12.937-24.698,24.354-40.283,33.552L1185.538,652.853z"/>
			<path d="M1185.541,654.469c-0.553,0-1.093-0.284-1.393-0.796l-34.063-57.671c-0.215-0.37-0.278-0.809-0.171-1.226
				c0.107-0.413,0.373-0.771,0.745-0.988c14.998-8.851,28.418-20.027,39.886-33.22c0.521-0.594,1.401-0.729,2.074-0.313
				c22.693,14.127,41.114,32.996,54.748,56.086c0.451,0.768,0.195,1.759-0.571,2.214l-60.435,35.689
				C1186.104,654.396,1185.822,654.469,1185.541,654.469z M1153.691,595.743l32.418,54.896l57.644-34.041
				c-13.044-21.612-30.42-39.386-51.679-52.865C1180.935,576.327,1168.036,587.088,1153.691,595.743z"/>
		</g>
		<g>
			<path fill="#FFFFFF" d="M1219.595,710.518c15.579-9.207,32.067-15.479,48.834-19.071c-1.346-25.411-8.633-50.873-22.456-74.283
				l-60.435,35.689L1219.595,710.518z"/>
			<path d="M1219.595,712.134c-0.133,0-0.269-0.016-0.401-0.05c-0.413-0.107-0.773-0.376-0.988-0.745l-34.057-57.666
				c-0.221-0.369-0.281-0.808-0.177-1.225c0.107-0.414,0.376-0.771,0.745-0.988l60.435-35.689c0.366-0.218,0.809-0.284,1.226-0.174
				c0.416,0.107,0.77,0.376,0.991,0.745c13.441,22.766,21.281,48.708,22.677,75.02c0.041,0.792-0.499,1.5-1.275,1.667
				c-17.076,3.659-33.344,10.013-48.351,18.882C1220.169,712.059,1219.885,712.134,1219.595,712.134z M1187.755,653.424
				l32.414,54.887c14.521-8.393,30.173-14.493,46.567-18.149c-1.535-25.121-8.709-48.919-21.339-70.781L1187.755,653.424z"/>
		</g>
		<g>
			<path fill="#FFFFFF" d="M1117.108,537.721c-31.019,18.434-51.864,47.444-60.712,79.714c15.339,1.137,30.912,0.114,46.245-3.17
				C1101.232,587.887,1106.26,561.607,1117.108,537.721z"/>
			<path d="M1068.471,619.5L1068.471,619.5c-4.051,0-8.152-0.155-12.194-0.452c-0.483-0.037-0.922-0.287-1.203-0.682
				c-0.277-0.395-0.362-0.894-0.236-1.357c9.33-34.022,31.151-62.673,61.444-80.678c0.604-0.362,1.377-0.29,1.904,0.187
				c0.527,0.471,0.686,1.229,0.395,1.873c-10.754,23.675-15.705,49.882-14.322,75.789c0.041,0.792-0.499,1.5-1.275,1.667
				C1091.662,618.269,1080.053,619.5,1068.471,619.5z M1058.493,615.957c14.228,0.875,28.55-0.139,42.468-2.99
				c-1.086-24.243,3.253-48.698,12.599-71.142C1086.815,559.138,1067.403,585.234,1058.493,615.957z"/>
		</g>
		<g>
			<path fill="#FFFFFF" d="M1117.76,537.329c-0.152,0-0.316-0.031-0.468-0.038c-0.063,0.143-0.126,0.291-0.184,0.43
				c0.102-0.063,0.209-0.139,0.322-0.202C1117.538,537.455,1117.652,537.393,1117.76,537.329z"/>
			<path d="M1117.108,539.337c-0.382,0-0.764-0.136-1.063-0.397c-0.53-0.461-0.701-1.216-0.42-1.859l1.483,0.641l-1.439-0.748
				l0.146-0.338c0.271-0.604,0.865-0.957,1.547-0.96c0.006,0.003,0.404,0.038,0.414,0.038c0.71,0.041,1.348,0.543,1.519,1.234
				c0.164,0.691-0.102,1.414-0.717,1.774l-0.328,0.189l-0.489-0.616v0.424l0.186,0.385
				C1117.687,539.262,1117.396,539.337,1117.108,539.337z"/>
		</g>
		<g>
			<path fill="#FFFFFF" d="M1102.642,614.265c16.766-3.612,33.261-9.877,48.84-19.084l-34.051-57.662
				c-0.113,0.063-0.221,0.139-0.322,0.202C1106.26,561.607,1101.232,587.887,1102.642,614.265z"/>
			<path d="M1102.642,615.881c-0.351,0-0.695-0.113-0.979-0.331c-0.379-0.287-0.609-0.727-0.635-1.2
				c-1.411-26.422,3.641-53.153,14.61-77.298c0.132-0.297,0.354-0.544,0.631-0.714l0.376-0.233c0.768-0.417,1.733-0.165,2.176,0.593
				l34.051,57.662c0.454,0.768,0.201,1.759-0.568,2.214c-15.273,9.027-31.866,15.513-49.32,19.273
				C1102.868,615.869,1102.755,615.881,1102.642,615.881z M1117.5,540.818c-9.75,22.446-14.341,47.05-13.334,71.454
				c15.901-3.622,31.058-9.558,45.096-17.67L1117.5,540.818z"/>
		</g>
		<g>
			<path fill="#FFFFFF" d="M1151.481,595.181c15.585-9.197,29.036-20.615,40.283-33.552c-22.412-13.969-47.849-22.254-74.005-24.3
				c-0.107,0.063-0.222,0.126-0.329,0.189L1151.481,595.181z"/>
			<path d="M1151.481,596.797c-0.553,0-1.093-0.283-1.396-0.795l-34.051-57.662c-0.215-0.37-0.277-0.809-0.17-1.226
				s0.375-0.771,0.745-0.988c0.284-0.17,0.915-0.47,1.275-0.407c26.45,2.068,52.294,10.553,74.737,24.537
				c0.398,0.253,0.67,0.666,0.742,1.134c0.069,0.467-0.069,0.943-0.379,1.301c-11.698,13.454-25.386,24.853-40.684,33.883
				C1152.043,596.725,1151.759,596.797,1151.481,596.797z M1120.282,539.17l31.765,53.791c13.896-8.39,26.412-18.793,37.239-30.959
				C1168.421,549.344,1144.654,541.484,1120.282,539.17z"/>
		</g>
		<g>
			<path fill="#FFFFFF" d="M1253.961,767.99c31.02-18.439,51.865-47.451,60.719-79.727c-15.34-1.137-30.906-0.104-46.251,3.183
				C1269.837,717.812,1264.816,744.091,1253.961,767.99z"/>
			<path d="M1253.961,769.606c-0.386,0-0.773-0.139-1.077-0.413c-0.527-0.471-0.685-1.229-0.395-1.872
				c10.755-23.672,15.706-49.879,14.325-75.79c-0.041-0.792,0.499-1.499,1.279-1.667c15.308-3.28,31.13-4.36,46.705-3.214
				c0.48,0.037,0.923,0.287,1.2,0.682c0.278,0.395,0.366,0.894,0.24,1.357c-9.334,34.025-31.155,62.68-61.451,80.69
				C1254.532,769.531,1254.245,769.606,1253.961,769.606z M1270.114,692.744c1.083,24.243-3.259,48.701-12.604,71.142
				c26.75-17.319,46.162-43.419,55.073-74.145C1298.361,688.87,1284.052,689.884,1270.114,692.744z"/>
		</g>
		<g>
			<path fill="#FFFFFF" d="M1179.312,744.082c-10.287,11.84-18.699,24.976-25.108,38.95c32.528,7.844,68,3.597,99.12-14.669
				C1227.16,766.323,1201.717,758.035,1179.312,744.082z"/>
			<path d="M1185.733,788.403c0,0,0,0-0.003,0c-10.72-0.003-21.455-1.278-31.906-3.798c-0.474-0.114-0.865-0.434-1.077-0.865
				c-0.211-0.437-0.218-0.941-0.016-1.38c6.542-14.263,15.074-27.496,25.358-39.34c0.521-0.594,1.398-0.732,2.074-0.313
				c22.014,13.707,47.355,22.021,73.285,24.045c0.701,0.054,1.288,0.559,1.446,1.247s-0.146,1.398-0.758,1.759
				C1233.361,781.956,1209.705,788.403,1185.733,788.403z M1156.508,781.912c30.811,6.939,63.668,2.497,91.504-12.425
				c-24.167-2.656-47.678-10.66-68.378-23.306C1170.379,757.024,1162.608,769.029,1156.508,781.912z"/>
		</g>
		<g>
			<path fill="#FFFFFF" d="M1253.323,768.363c0.146,0.006,0.297,0.028,0.454,0.034c0.063-0.136,0.127-0.281,0.184-0.407
				c-0.102,0.057-0.202,0.126-0.31,0.187C1253.544,768.243,1253.431,768.306,1253.323,768.363z"/>
			<path d="M1253.746,770.015c-0.031,0.003-0.315-0.022-0.354-0.025c-0.714-0.066-1.408-0.601-1.547-1.301
				c-0.14-0.701,0.088-1.421,0.72-1.753c0.025-0.019,0.287-0.164,0.315-0.18c0.609-0.338,1.528-0.332,2.037,0.154
				c0.508,0.48,0.805,1.14,0.505,1.774C1255.148,769.26,1254.387,770.015,1253.746,770.015z"/>
		</g>
		<g>
			<path fill="#FFFFFF" d="M1219.595,710.518c-15.585,9.194-29.036,20.612-40.283,33.564c22.405,13.953,47.849,22.241,74.012,24.281
				c0.107-0.058,0.221-0.12,0.328-0.187L1219.595,710.518z"/>
			<path d="M1253.323,769.979c-0.044,0-0.085-0.003-0.127-0.007c-26.446-2.062-52.288-10.539-74.74-24.518
				c-0.401-0.252-0.673-0.666-0.745-1.134c-0.07-0.467,0.066-0.943,0.379-1.301c11.695-13.463,25.383-24.868,40.684-33.896
				c0.771-0.451,1.762-0.199,2.217,0.571l34.051,57.659c0.448,0.758,0.208,1.733-0.543,2.197l-0.42,0.237
				C1253.844,769.916,1253.585,769.979,1253.323,769.979z M1181.79,743.709c20.874,12.652,44.638,20.508,69.007,22.813
				l-31.768-53.785C1205.133,721.127,1192.617,731.534,1181.79,743.709z"/>
		</g>
		<g>
			<path fill="#FFFFFF" d="M1268.429,691.446c-16.767,3.593-33.255,9.864-48.834,19.071l34.057,57.659
				c0.107-0.061,0.208-0.13,0.31-0.187C1264.816,744.091,1269.837,717.812,1268.429,691.446z"/>
			<path d="M1253.677,769.664c-0.578,0-1.149-0.209-1.421-0.667l-34.051-57.658c-0.454-0.768-0.202-1.759,0.568-2.214
				c15.308-9.046,31.903-15.528,49.317-19.261c0.464-0.095,0.944,0.01,1.323,0.297c0.372,0.287,0.605,0.727,0.631,1.2
				c1.408,26.425-3.644,53.153-14.613,77.298c-0.139,0.313-0.378,0.572-0.675,0.739
				C1254.45,769.572,1254.062,769.664,1253.677,769.664z M1221.814,711.096l31.761,53.778c9.747-22.44,14.339-47.04,13.331-71.436
				C1251.037,697.032,1235.884,702.965,1221.814,711.096z"/>
		</g>
	</g>
	<g>
		<path d="M1252.483,852.804h-128.857c-0.896,0-1.616-0.724-1.616-1.617s0.72-1.616,1.616-1.616h128.857
			c0.896,0,1.616,0.723,1.616,1.616S1253.38,852.804,1252.483,852.804z"/>
	</g>
	<g>
		<path fill="#FFFFFF" d="M1249.963,69.026c-7.628-1.225-15.357-1.535-22.986-0.932c-44.444,3.534-80.439,36.766-87.551,80.832
			c-5.589,34.717,8.121,69.683,35.8,91.372l30.874,101.251l61.123-86.405c33.109-11.9,57.119-40.779,62.701-75.496
			C1338.404,127.136,1302.567,77.51,1249.963,69.026z M1238.331,210.308c-25.468,2.021-47.76-16.987-49.774-42.458
			c-2.027-25.478,16.987-47.754,42.455-49.775c25.469-2.018,47.761,16.994,49.775,42.459
			C1282.814,186.008,1263.806,208.29,1238.331,210.308z"/>
		<path d="M1205.512,345.174l-31.682-103.919c-27.861-22.064-41.653-57.488-36.002-92.584c7.23-44.798,43.836-78.596,89.02-82.186
			c7.742-0.619,15.664-0.291,23.368,0.944c25.866,4.174,48.575,18.184,63.942,39.453c15.367,21.263,21.531,47.198,17.36,73.027
			c-5.637,35.08-29.86,64.378-63.267,76.585L1205.512,345.174z M1234.562,69.411c-2.482,0-4.992,0.101-7.458,0.293
			c-43.693,3.474-79.092,36.157-86.083,79.48c-5.491,34.101,7.998,68.524,35.203,89.84l0.4,0.313l30.057,98.586l59.519-84.128
			l0.48-0.174c32.547-11.698,56.168-40.144,61.646-74.229c4.035-24.976-1.926-50.056-16.785-70.621
			c-14.865-20.568-36.826-34.117-61.837-38.152C1244.709,69.818,1239.613,69.411,1234.562,69.411z M1234.618,212.073
			c-24.773,0-45.714-19.371-47.675-44.097c-1.014-12.75,2.996-25.131,11.301-34.859c8.298-9.728,19.892-15.642,32.642-16.653
			c26.403-2.128,49.456,17.951,51.515,43.943c1.014,12.75-3,25.13-11.301,34.859c-8.298,9.728-19.893,15.646-32.643,16.652
			C1237.169,212.022,1235.888,212.073,1234.618,212.073z M1234.719,119.542c-1.184,0-2.381,0.047-3.577,0.142
			c-11.888,0.944-22.699,6.46-30.441,15.529c-7.735,9.075-11.48,20.618-10.533,32.506c1.92,24.243,23.403,42.907,48.035,40.978
			c11.891-0.944,22.699-6.458,30.441-15.529c7.735-9.075,11.48-20.618,10.533-32.506
			C1277.352,137.604,1257.819,119.542,1234.719,119.542z"/>
	</g>
	<g>
		<path fill="#FFFFFF" d="M957.675,119.186c2.942,18.329,15.623,33.58,33.103,39.863l32.276,45.623l16.299-53.463
			c14.612-11.452,21.856-29.911,18.907-48.243c-3.758-23.271-22.766-40.814-46.232-42.683c-4.029-0.315-8.108-0.151-12.137,0.493
			C972.117,65.256,953.197,91.46,957.675,119.186z M983.616,109.091c1.062-13.445,12.832-23.479,26.276-22.418
			c13.451,1.067,23.492,12.832,22.419,26.283c-1.062,13.451-12.832,23.485-26.277,22.418
			C992.584,134.31,982.549,122.542,983.616,109.091z"/>
		<path d="M1023.635,208.296l-33.887-47.902c-17.786-6.586-30.665-22.235-33.671-40.953c-2.236-13.836,1.066-27.732,9.299-39.125
			c8.234-11.395,20.4-18.904,34.255-21.136c4.143-0.663,8.371-0.836,12.523-0.508c24.211,1.926,43.825,20.034,47.699,44.035
			c3.013,18.724-4.303,37.625-19.105,49.456L1023.635,208.296z M1008.036,61.745c-2.63,0-5.285,0.211-7.894,0.628
			c-13.002,2.097-24.42,9.141-32.144,19.838c-7.729,10.691-10.826,23.732-8.73,36.715c2.846,17.726,15.128,32.516,32.052,38.601
			l0.48,0.173l30.665,43.346l15.488-50.798l0.4-0.313c14.146-11.086,21.162-28.986,18.308-46.715
			c-3.638-22.522-22.046-39.516-44.764-41.329C1010.616,61.795,1009.328,61.745,1008.036,61.745z M1007.992,137.07
			c-0.691,0-1.386-0.028-2.087-0.085c-6.938-0.546-13.239-3.764-17.755-9.059c-4.515-5.292-6.697-12.027-6.147-18.961
			c1.114-14.136,13.612-25.08,28.02-23.902c6.938,0.549,13.239,3.767,17.755,9.059c4.515,5.292,6.7,12.027,6.147,18.964
			C1032.86,126.533,1021.469,137.07,1007.992,137.07z M1007.948,88.214c-11.813,0-21.793,9.226-22.722,21.004
			c-0.482,6.078,1.428,11.976,5.384,16.611c3.953,4.635,9.476,7.452,15.551,7.935c12.582,0.985,23.561-8.554,24.54-20.935
			c0.482-6.075-1.428-11.973-5.384-16.608c-3.953-4.635-9.476-7.455-15.551-7.938C1009.154,88.236,1008.548,88.214,1007.948,88.214z
			"/>
	</g>
	<g>
		<g>
			<path fill="#FFFFFF" d="M1206.1,341.549h-105.58c-42.684,0-77.599-34.918-77.599-77.598v-60.135"/>
		</g>
		<g>
			<path d="M1206.1,343.166h-105.58c-43.681,0-79.215-35.534-79.215-79.215v-60.135h3.232v60.135
				c0,41.896,34.082,75.981,75.982,75.981h105.58V343.166z"/>
		</g>
	</g>
	<g>
		<g>
			<polygon fill="#FFFFFF" points="441.838,235.912 425.691,224.229 413.576,234.333 393.911,216.114 417.832,336.983 
				445.387,336.983 460.029,216.266 			"/>
		</g>
		<g>
			<path fill="#FFFFFF" d="M474.206,153.11c-18.979-10.11-38.18-11.07-43.614-11.121l-2.7,0.17l-0.868-0.12
				c-6.905,0.243-24.739,1.813-42.13,11.07c-17.913,9.533-39.687,29.766-41.695,72.01c-0.041,1.819-0.527,44.647,37.773,74.037
				l0.452,0.335l7.944,37.492h25.958L390.04,209.19l23.618,21.878l11.923-9.94l15.942,11.519l21.856-23.605l-15.516,127.942h21.856
				l8.071-37.653l0.338-0.174c38.502-29.554,37.814-72.376,37.764-74.182C513.911,182.885,492.127,162.665,474.206,153.11z"/>
		</g>
		<g>
			<path fill="#FFFFFF" d="M465.393,350.238h-72.755v7.231l-8.096,3.123v4.904l9.005,9.119l-9.005,3.482v4.891l8.175,8.279
				l-0.079,6.157c0,12.681,10.334,23.217,23.041,23.492l1.193,0.032v3.909c0,4.528,3.675,8.209,8.19,8.209h7.9
				c4.519,0,8.191-3.682,8.191-8.209v-3.922l1.193-0.025c1.828-0.038,3.404-0.237,4.957-0.612
				c10.609-2.52,18.048-11.891,18.089-22.791v-0.625l8.011-7.875l0.082-5.096l-8.999-3.495l8.917-8.917l0.082-5.093l-8.093-3.132
				V350.238z"/>
		</g>
		<g>
			<path d="M467.847,347.782h-77.662v8.007l-8.096,3.123l-0.079,7.635l7.142,7.142l-7.063,2.728l-0.079,7.619l8.175,8.285v5.103
				c0,13.129,9.864,24.218,22.993,25.784l1.241,0.385v1.263c0,5.876,4.777,10.663,10.644,10.663h7.9
				c5.873,0,10.647-4.878,10.647-10.865v-1.313l1.301-0.142c0.96-0.107,1.923-0.275,2.952-0.518
				c11.408-2.706,19.428-12.387,19.952-24.092l0.101-0.641l8.026-7.9v-7.824l-7.063-2.728l7.063-6.946v-7.831l-8.096-3.132V347.782z
				 M473.486,366.405l-0.082,5.093l-8.917,8.917l8.999,3.495l-0.082,5.096l-8.011,7.875v0.625
				c-0.041,10.9-7.48,20.271-18.089,22.791c-1.553,0.375-3.129,0.575-4.957,0.612l-1.193,0.025v3.922
				c0,4.528-3.672,8.209-8.191,8.209h-7.9c-4.515,0-8.19-3.682-8.19-8.209v-3.909l-1.193-0.032
				c-12.706-0.274-23.041-10.811-23.041-23.492l0.079-6.157l-8.175-8.279v-4.891l9.005-3.482l-9.005-9.119v-4.904l8.096-3.123
				v-7.231h72.755v13.034L473.486,366.405z"/>
		</g>
		<g>
			<path d="M518.354,224.876c-2.042-43.254-24.511-64.081-42.999-73.933c-18.275-9.738-36.879-11.209-44.021-11.389l-3.404-0.016
				l-0.919,0.025c-7.01,0.23-25.257,1.79-43.271,11.379c-18.474,9.835-40.93,30.666-42.992,74.087
				c-0.044,1.838-0.6,45.297,37.959,75.458l0.439,0.426l8.244,38.525h84.311l8.349-38.683l0.344-0.269
				C519.023,270.269,518.398,226.708,518.354,224.876z M417.832,336.983l-23.921-120.869l19.665,18.219l12.115-10.104l16.147,11.683
				l18.19-19.646l-14.642,120.717H417.832z M478.127,299.156l-0.338,0.174l-8.071,37.653h-21.856l15.516-127.942l-21.856,23.605
				l-15.942-11.519l-11.923,9.94L390.04,209.19l25.285,127.793h-25.958l-7.944-37.492l-0.452-0.335
				c-38.3-29.39-37.814-72.218-37.773-74.037c2.008-42.244,23.782-62.477,41.695-72.01c17.391-9.258,35.225-10.827,42.13-11.07
				l0.868,0.12l2.7-0.17c5.434,0.05,24.635,1.01,43.614,11.121c17.922,9.555,39.706,29.775,41.686,71.865
				C515.941,226.78,516.63,269.603,478.127,299.156z"/>
		</g>
	</g>
	<g>
		<g>
			<path d="M289.073,438.714H96.904v-52.269h73.181v1.617c0,12.627,10.275,22.901,22.901,22.901
				c12.63,0,22.901-10.274,22.901-22.901v-1.617h73.185V438.714z M100.138,435.481h185.702v-45.802h-66.765
				c-0.84,13.662-12.22,24.518-26.087,24.518s-25.247-10.855-26.087-24.518h-66.762V435.481z"/>
		</g>
		<g>
			<path d="M289.073,150.268H96.904V106.65h192.168V150.268z M100.138,147.035h185.702v-37.151H100.138V147.035z"/>
		</g>
		<g>
			<path d="M192.987,414.196c-14.411,0-26.134-11.724-26.134-26.134v-1.617h52.269v1.617
				C219.122,402.473,207.398,414.196,192.987,414.196z M170.143,389.679c0.831,11.875,10.761,21.285,22.844,21.285
				c12.087,0,22.014-9.41,22.845-21.285H170.143z"/>
		</g>
		<g>
			<path d="M289.073,389.679H96.904V147.035h192.168V389.679z M100.138,386.445h185.702V150.268H100.138V386.445z"/>
		</g>
		<g>
			<path d="M192.987,331.991c-35.086,0-63.636-28.547-63.636-63.636c0-35.086,28.55-63.633,63.636-63.633
				c35.089,0,63.636,28.547,63.636,63.633C256.623,303.444,228.076,331.991,192.987,331.991z M192.987,207.956
				c-33.305,0-60.403,27.094-60.403,60.399s27.098,60.403,60.403,60.403s60.403-27.098,60.403-60.403
				S226.292,207.956,192.987,207.956z"/>
		</g>
		<g>
			<rect x="160.897" y="126.839" width="64.179" height="3.233"/>
		</g>
		<g>
			<rect x="181.023" y="244.554" width="44.053" height="3.233"/>
		</g>
		<g>
			<rect x="168.469" y="277.13" width="49.036" height="3.233"/>
		</g>
		<g>
			<rect x="186.95" y="307.981" width="30.555" height="3.233"/>
		</g>
	</g>
	<g>
		<path d="M298.28,698.093H151.867c-9.387,0-17.028-7.638-17.028-17.028V571.897c0-9.391,7.641-17.028,17.028-17.028H298.28
			c9.394,0,17.035,7.638,17.035,17.028v109.167C315.314,690.455,307.673,698.093,298.28,698.093z M151.867,558.103
			c-7.606,0-13.795,6.188-13.795,13.795v109.167c0,7.606,6.189,13.795,13.795,13.795H298.28c7.609,0,13.801-6.188,13.801-13.795
			V571.897c0-7.606-6.192-13.795-13.801-13.795H151.867z"/>
	</g>
	<g>
		<path d="M225.073,636.869c-11.869,0-21.524-9.655-21.524-21.521c0-11.869,9.656-21.524,21.524-21.524
			c11.869,0,21.525,9.655,21.525,21.524C246.598,627.214,236.942,636.869,225.073,636.869z M225.073,597.057
			c-10.085,0-18.291,8.206-18.291,18.291s8.206,18.288,18.291,18.288s18.292-8.203,18.292-18.288S235.158,597.057,225.073,597.057z"
			/>
	</g>
	<g>
		<path d="M225.073,665.77c-0.894,0-1.617-0.723-1.617-1.616v-28.9c0-0.894,0.723-1.617,1.617-1.617s1.617,0.724,1.617,1.617v28.9
			C226.69,665.047,225.967,665.77,225.073,665.77z"/>
	</g>
	<g>
		<path d="M283.938,558.103h-117.73c-0.894,0-1.616-0.724-1.616-1.617v-33.914c0-28.225,22.961-51.187,51.186-51.187h18.591
			c28.225,0,51.186,22.962,51.186,51.187v33.914C285.555,557.379,284.832,558.103,283.938,558.103z M167.825,554.869h114.497
			v-32.298c0-26.441-21.512-47.953-47.953-47.953h-18.591c-26.441,0-47.953,21.512-47.953,47.953V554.869z"/>
	</g>
	<g>
		<g>
			
				<rect x="256.331" y="800.972" transform="matrix(0.5193 0.8546 -0.8546 0.5193 865.1815 179.0733)" fill="#FFFFFF" width="34.151" height="115.306"/>
			<path fill="#231F20" d="M232.462,905.376l-19.412-31.947l101.298-61.556l19.418,31.947L232.462,905.376z M217.489,874.515
				l16.059,26.422l95.773-58.202l-16.053-26.422L217.489,874.515z"/>
		</g>
		<g>
			<path fill="#FFFFFF" d="M492.844,831.86c42.993-26.126,56.667-82.155,30.54-125.142c-26.122-42.992-82.148-56.664-125.141-30.536
				c-40.015,24.316-54.583,74.523-35.348,116.025l-31.076,18.882l10.688,17.584l31.073-18.879
				C401.558,845.983,452.833,856.179,492.844,831.86z"/>
			<path fill="#231F20" d="M445.675,846.729h-0.003c-28.057-0.003-55.038-12.986-72.477-34.809l-31.23,18.974l-12.365-20.347
				l31.23-18.977c-18.919-42.521-3.363-92.502,36.573-116.771c14.528-8.828,31.146-13.495,48.057-13.495
				c32.699,0,62.348,16.662,79.304,44.574c12.863,21.158,16.709,46.062,10.843,70.115c-5.873,24.058-20.761,44.389-41.922,57.249
				C479.169,842.065,462.567,846.729,445.675,846.729z M373.974,807.664l0.884,1.143c16.792,21.721,43.264,34.686,70.813,34.688
				c16.302,0,32.323-4.502,46.333-13.019c20.426-12.408,34.792-32.029,40.457-55.246c5.667-23.217,1.951-47.252-10.458-67.672
				c-16.369-26.939-44.981-43.021-76.544-43.021c-16.318,0-32.358,4.506-46.377,13.028c-38.938,23.662-53.867,72.653-34.72,113.963
				l0.606,1.311l-30.931,18.793l9.011,14.821L373.974,807.664z"/>
		</g>
		<g>
			<path fill="#FFFFFF" d="M347.221,836.436l-4.714-7.762l-10.688-17.584l-4.714-7.758c-2.431-3.997-7.644-5.276-11.648-2.842
				c-3.994,2.432-5.27,7.645-2.838,11.648l20.119,33.1c2.432,4.001,7.645,5.273,11.639,2.848
				C348.383,845.648,349.652,840.438,347.221,836.436z"/>
			<path fill="#231F20" d="M339.994,850.932L339.994,850.932c-3.562,0-6.792-1.813-8.639-4.854l-20.116-33.1
				c-2.889-4.756-1.374-10.976,3.378-13.868c1.582-0.963,3.391-1.472,5.232-1.472c3.562,0,6.789,1.816,8.639,4.854l20.113,33.104
				c2.893,4.755,1.371,10.979-3.385,13.87C343.637,850.426,341.831,850.932,339.994,850.932z M319.849,800.872
				c-1.25,0-2.476,0.345-3.552,0.998c-3.23,1.967-4.259,6.195-2.295,9.429l20.12,33.1c1.901,3.132,6.261,4.215,9.416,2.305
				c3.233-1.964,4.266-6.194,2.305-9.428l-20.12-33.104C324.465,802.107,322.271,800.872,319.849,800.872z"/>
		</g>
		<g>
			<path fill="#FFFFFF" d="M231.357,916.762c-3.991,2.425-9.21,1.162-11.639-2.839l-20.12-33.109
				c-2.431-3.997-1.156-9.213,2.842-11.639l0,0c3.994-2.434,9.21-1.161,11.639,2.839l20.123,33.109
				C236.63,909.124,235.354,914.337,231.357,916.762L231.357,916.762z"/>
			<path fill="#231F20" d="M226.965,919.609c-3.559,0-6.786-1.812-8.629-4.847l-20.12-33.109c-1.399-2.302-1.819-5.011-1.178-7.632
				c0.641-2.62,2.261-4.83,4.563-6.229c1.579-0.96,3.388-1.471,5.232-1.471c3.559,0,6.786,1.815,8.629,4.853l20.12,33.109
				c2.886,4.759,1.367,10.976-3.385,13.861C230.618,919.104,228.806,919.609,226.965,919.609z M206.833,869.554
				c-1.247,0-2.479,0.348-3.552,1.001c-1.566,0.951-2.665,2.454-3.101,4.234c-0.436,1.781-0.151,3.622,0.802,5.185l20.119,33.109
				c1.901,3.129,6.265,4.219,9.416,2.296c3.233-1.961,4.262-6.186,2.302-9.416l-20.123-33.109
				C211.446,870.789,209.251,869.554,206.833,869.554z"/>
		</g>
		<g>
			<path fill="#FFFFFF" d="M481.427,813.069c-32.614,19.82-75.113,9.447-94.933-23.16c-19.816-32.616-9.447-75.119,23.17-94.936
				c32.607-19.826,75.113-9.454,94.933,23.163C524.41,750.75,514.038,793.253,481.427,813.069z"/>
			<path fill="#231F20" d="M445.605,824.746c-24.941,0-47.555-12.709-60.491-33.997c-20.252-33.327-9.611-76.913,23.71-97.159
				c11.08-6.734,23.757-10.296,36.662-10.296c24.938,0,47.555,12.712,60.491,34.003c20.246,33.324,9.611,76.907-23.71,97.156
				C471.184,821.185,458.507,824.746,445.605,824.746z M445.485,686.527c-12.311,0-24.408,3.397-34.982,9.826
				c-15.405,9.361-26.242,24.161-30.517,41.672c-4.272,17.509-1.472,35.639,7.887,51.044c12.349,20.315,33.931,32.443,57.731,32.443
				c12.308,0,24.408-3.397,34.982-9.826c31.799-19.32,41.947-60.911,22.63-92.71C490.868,698.658,469.286,686.527,445.485,686.527z"
				/>
		</g>
	</g>
	<g>
		<rect x="417.081" y="708.897" fill="#231F20" width="41.278" height="3.233"/>
	</g>
	<g>
		<rect x="417.081" y="746.652" fill="#231F20" width="58.862" height="3.232"/>
	</g>
	<g>
		<rect x="422.47" y="781.419" fill="#231F20" width="47.694" height="3.233"/>
	</g>
	<g>
		<path fill="#FFFFFF" d="M1046.678,454.713h142.156c6.855,16.046,22.775,27.296,41.319,27.3
			c18.557-0.003,34.477-11.253,41.325-27.3h-41.325l0.003-35.231h41.322c-6.849-16.047-22.769-27.3-41.325-27.3
			c-18.544,0-34.464,11.253-41.322,27.3h-142.153c-6.858-16.047-22.778-27.3-41.318-27.3c-18.554,0-34.474,11.253-41.326,27.3
			h41.326v35.231h-41.326c6.853,16.046,22.772,27.296,41.326,27.3C1023.899,482.01,1039.819,470.76,1046.678,454.713z"/>
		<path d="M1230.153,483.63L1230.153,483.63c-18.308-0.003-34.821-10.682-42.374-27.3h-140.047
			c-7.556,16.618-24.069,27.296-42.373,27.3c-18.674-0.003-35.479-11.105-42.813-28.282c-0.212-0.499-0.161-1.074,0.136-1.525
			c0.303-0.455,0.808-0.727,1.351-0.727h39.709v-31.998h-39.709c-0.543,0-1.048-0.271-1.351-0.726
			c-0.297-0.452-0.348-1.026-0.136-1.525c7.334-17.18,24.139-28.282,42.813-28.282c18.301,0,34.814,10.679,42.373,27.3h140.044
			c7.556-16.621,24.073-27.3,42.377-27.3c18.534,0,35.231,10.938,42.648,27.899c0.224,0.278,0.359,0.632,0.359,1.017
			c0,0.906-0.808,1.484-1.651,1.616c-0.006,0-0.019,0-0.031,0h-39.705l-0.004,31.998h39.709c0.543,0,1.052,0.271,1.352,0.727
			c0.297,0.451,0.351,1.026,0.139,1.525C1265.634,472.525,1248.83,483.626,1230.153,483.63z M966.56,456.33
			c7.284,14.695,22.254,24.063,38.8,24.066c17.365-0.003,32.998-10.334,39.828-26.318c0.259-0.597,0.84-0.982,1.49-0.982h142.156
			c0.645,0,1.231,0.385,1.484,0.982c6.833,15.983,22.469,26.315,39.835,26.318c16.549-0.003,31.519-9.372,38.803-24.066h-38.803
			c-0.43,0-0.84-0.17-1.144-0.474c-0.303-0.303-0.473-0.713-0.473-1.143l0.003-35.231c0-0.894,0.723-1.617,1.616-1.617h38.8
			c-7.284-14.702-22.254-24.066-38.803-24.066c-17.366,0-33.002,10.331-39.835,26.317c-0.256,0.597-0.84,0.982-1.487,0.982h-142.153
			c-0.65,0-1.231-0.385-1.49-0.982c-6.833-15.986-22.466-26.317-39.828-26.317c-16.546,0-31.513,9.368-38.8,24.066h38.8
			c0.896,0,1.616,0.723,1.616,1.617v35.231c0,0.894-0.72,1.617-1.616,1.617H966.56z"/>
	</g>
	<g>
		<path d="M1185.538,442.602h-103.212c-0.894,0-1.617-0.723-1.617-1.617s0.724-1.617,1.617-1.617h103.212
			c0.896,0,1.616,0.723,1.616,1.617S1186.435,442.602,1185.538,442.602z"/>
	</g>
	<g>
		<g>
			<path d="M222.942,813.54l-0.17-3.271c-0.016-0.363-0.05-0.68-0.098-0.977c-0.366-2.311-1.614-4.345-3.511-5.715
				c-1.882-1.364-4.181-1.903-6.492-1.547c-2.296,0.356-4.313,1.588-5.696,3.47l-1.945,2.64l-2.697-1.856
				c-3.038-2.1-5.784-4.601-8.165-7.438l-2.116-2.526l2.466-2.182c2.22-1.945,3.312-4.977,2.86-7.913
				c-0.679-4.26-4.304-7.356-8.607-7.356l-3.723,0.167l-0.233-3.287c-0.183-2.522-0.133-5.087,0.151-7.619
				c0.133-1.196,0.322-2.409,0.562-3.59l0.663-3.239l3.262,0.597c1.014,0.189,2.018,0.208,2.984,0.054
				c3.884-0.612,6.896-3.761,7.332-7.657c0.088-0.773,0.07-1.566-0.057-2.355c-0.265-1.651-0.988-3.18-2.097-4.42l-2.21-2.476
				l2.431-2.255c2.76-2.542,5.854-4.695,9.207-6.394l2.934-1.49l1.563,2.901c1.743,3.239,5.368,5.077,9.062,4.493
				c3.663-0.581,6.567-3.429,7.237-7.086l0.59-3.232l3.249,0.502c3.675,0.568,7.247,1.642,10.609,3.186l3.025,1.383l-1.339,3.047
				c-0.682,1.548-0.906,3.246-0.644,4.913c0.366,2.306,1.604,4.336,3.495,5.706c1.892,1.37,4.206,1.929,6.527,1.557
				c0.998-0.155,1.97-0.496,2.898-1.011l2.917-1.613l1.654,2.889c1.87,3.262,3.271,6.792,4.168,10.496l0.771,3.18l-3.157,0.868
				c-3.404,0.94-5.955,3.931-6.347,7.438c-0.088,0.783-0.069,1.576,0.057,2.353c0.467,2.962,2.394,5.447,5.16,6.653l3,1.294
				l-1.212,3.044c-1.352,3.41-3.196,6.646-5.469,9.615l-1.989,2.617l-2.671-1.933c-1.869-1.348-4.174-1.907-6.473-1.531
				c-3.877,0.616-6.89,3.761-7.326,7.645c-0.088,0.783-0.069,1.575,0.057,2.355c0.044,0.315,0.107,0.587,0.208,0.938l0.897,3.198
				l-3.186,0.951c-1.784,0.53-3.612,0.953-5.44,1.256c-1.863,0.301-3.713,0.458-5.658,0.493L222.942,813.54z M214.073,798.688
				c2.517,0,4.932,0.783,6.984,2.271c2.602,1.878,4.307,4.663,4.812,7.837c0.063,0.403,0.107,0.827,0.132,1.31l0.006,0.133
				l0.139-0.003c1.8-0.031,3.499-0.177,5.204-0.451c1.683-0.278,3.378-0.673,5.033-1.166l0.139-0.041l-0.038-0.132
				c-0.145-0.512-0.233-0.909-0.291-1.329c-0.167-1.039-0.192-2.122-0.076-3.199c0.6-5.323,4.724-9.63,10.031-10.479
				c3.17-0.496,6.312,0.256,8.876,2.106l0.114,0.082l0.082-0.107c2.097-2.738,3.789-5.712,5.033-8.848l0.054-0.126l-0.123-0.054
				c-3.786-1.651-6.425-5.056-7.066-9.106c-0.17-1.064-0.196-2.15-0.076-3.224c0.54-4.806,4.035-8.904,8.702-10.195l0.136-0.038
				l-0.032-0.136c-0.824-3.404-2.112-6.65-3.83-9.646l-0.076-0.126l-0.126,0.069c-1.256,0.697-2.589,1.165-3.959,1.38
				c-3.167,0.502-6.343-0.263-8.929-2.135c-2.589-1.879-4.291-4.657-4.793-7.821c-0.357-2.286-0.051-4.609,0.884-6.719l0.057-0.126
				l-0.133-0.061c-3.094-1.421-6.378-2.406-9.76-2.93l-0.139-0.022l-0.025,0.139c-0.913,5.005-4.897,8.901-9.908,9.7
				c-5.068,0.796-10.031-1.721-12.416-6.154l-0.066-0.123l-0.12,0.061c-3.088,1.565-5.942,3.546-8.478,5.885l-0.098,0.095
				l0.095,0.107c1.521,1.705,2.513,3.802,2.876,6.063c0.173,1.08,0.199,2.166,0.079,3.228c-0.597,5.339-4.724,9.652-10.034,10.489
				c-1.313,0.208-2.7,0.192-4.08-0.066l-0.146-0.025l-0.025,0.139c-0.228,1.086-0.398,2.197-0.518,3.297
				c-0.262,2.34-0.31,4.701-0.142,7.028l0.01,0.142l0.723-0.021c5.905,0,10.865,4.243,11.8,10.088
				c0.625,4.029-0.878,8.178-3.916,10.84l-0.104,0.092l0.095,0.113c2.191,2.617,4.724,4.923,7.524,6.855l0.114,0.078l0.088-0.116
				c1.888-2.573,4.654-4.26,7.792-4.746C212.797,798.738,213.438,798.688,214.073,798.688z"/>
		</g>
		<g>
			<path d="M224.998,795.313c-0.846,0-1.695-0.048-2.551-0.143c-12.438-1.398-21.42-12.652-20.028-25.083
				c1.386-12.343,12.507-21.417,25.086-20.031c6.024,0.676,11.423,3.659,15.206,8.399c3.783,4.739,5.494,10.666,4.818,16.69
				C246.241,786.642,236.554,795.313,224.998,795.313z M224.947,753.146c-9.902,0-18.206,7.437-19.314,17.301
				c-1.197,10.662,6.507,20.312,17.173,21.509c10.827,1.24,20.322-6.594,21.509-17.171c0.581-5.166-0.884-10.249-4.13-14.313
				c-3.243-4.067-7.875-6.625-13.041-7.203C226.406,753.188,225.673,753.146,224.947,753.146z"/>
		</g>
	</g>
	<g>
		<g>
			<path d="M987.709,852.22c-28.777,0-52.19-23.413-52.19-52.19s23.413-52.19,52.19-52.19s52.187,23.413,52.187,52.19
				S1016.486,852.22,987.709,852.22z M987.709,751.072c-26.997,0-48.957,21.964-48.957,48.957s21.96,48.957,48.957,48.957
				c26.99,0,48.953-21.964,48.953-48.957S1014.699,751.072,987.709,751.072z"/>
		</g>
		<g>
			<g>
				<rect x="954.473" y="798.413" width="66.465" height="3.232"/>
			</g>
			<g>
				<rect x="986.092" y="766.8" width="3.233" height="66.459"/>
			</g>
		</g>
	</g>
	<g>
		<rect x="436.152" y="879.219" width="171.123" height="3.233"/>
	</g>
	<g>
		<rect x="553.497" y="846.457" width="166.09" height="3.233"/>
	</g>
	<g>
		<path d="M758.19,892.175c-6.252,0-11.339-5.087-11.339-11.339s5.087-11.339,11.339-11.339s11.339,5.087,11.339,11.339
			S764.442,892.175,758.19,892.175z M758.19,872.73c-4.471,0-8.105,3.638-8.105,8.105s3.635,8.105,8.105,8.105
			s8.105-3.638,8.105-8.105S762.661,872.73,758.19,872.73z"/>
	</g>
	<g>
		<path d="M1082.326,250.828c-6.252,0-11.339-5.087-11.339-11.339s5.087-11.338,11.339-11.338s11.338,5.086,11.338,11.338
			S1088.578,250.828,1082.326,250.828z M1082.326,231.384c-4.472,0-8.105,3.637-8.105,8.105s3.634,8.105,8.105,8.105
			c4.471,0,8.105-3.638,8.105-8.105S1086.797,231.384,1082.326,231.384z"/>
	</g>
	<g>
		<path d="M533.863,88.855c-6.252,0-11.342-5.087-11.342-11.338c0-6.252,5.09-11.339,11.342-11.339s11.335,5.087,11.335,11.339
			C545.199,83.768,540.115,88.855,533.863,88.855z M533.863,69.411c-4.471,0-8.108,3.637-8.108,8.105
			c0,4.468,3.638,8.105,8.108,8.105c4.468,0,8.102-3.637,8.102-8.105C541.965,73.048,538.331,69.411,533.863,69.411z"/>
	</g>
	<g>
		<rect x="802.992" y="879.219" width="61.359" height="3.233"/>
	</g>
	<g>
		<rect x="503.182" y="126.839" width="61.359" height="3.233"/>
	</g>
	<g>
		<rect x="937.135" y="202.199" width="39.302" height="3.233"/>
	</g>
	<g>
		<rect x="299.3" y="475.474" width="39.301" height="3.233"/>
	</g>
	<g>
		<rect x="1082.762" y="271.067" width="39.298" height="3.233"/>
	</g>
	<g>
		<rect x="844.681" y="140.373" width="54.157" height="3.233"/>
	</g>
	<g>
		<g>
			
				<rect x="321.311" y="506.106" transform="matrix(0.7071 0.7071 -0.7071 0.7071 457.5532 -89.1858)" width="30.244" height="3.233"/>
		</g>
		<g>
			
				<rect x="334.817" y="492.601" transform="matrix(0.707 0.7072 -0.7072 0.707 457.6169 -89.1729)" width="3.233" height="30.244"/>
		</g>
	</g>
	<g>
		<g>
			
				<rect x="631.333" y="106.653" transform="matrix(0.7072 0.7071 -0.7071 0.7072 265.8638 -425.3764)" width="30.246" height="3.232"/>
		</g>
		<g>
			
				<rect x="644.84" y="93.146" transform="matrix(0.7071 0.7071 -0.7071 0.7071 265.9003 -425.4024)" width="3.232" height="30.246"/>
		</g>
	</g>
</g>
</svg>
